<?xml version="1.0" encoding="utf-8"?>
<!-- Generator: Adobe Illustrator 24.3.0, SVG Export Plug-In . SVG Version: 6.00 Build 0)  -->
<svg version="1.1" id="圖層_1" xmlns="http://www.w3.org/2000/svg" xmlns:xlink="http://www.w3.org/1999/xlink" x="0px" y="0px"
	 viewBox="0 0 841.89 595.28" style="enable-background:new 0 0 841.89 595.28;" xml:space="preserve">
<style type="text/css">
	.st0{fill-rule:evenodd;clip-rule:evenodd;}
	.st1{fill:#231815;}
	.st2{fill-rule:evenodd;clip-rule:evenodd;fill:#7A4521;}
</style>
<path class="st0" d="M454.73,252.8c0.76,0.61,1,1.54,1.45,2.34c0.14,0.24,0.08,0.61,0.07,0.92c-0.01,0.69-0.04,1.37,0.17,2.07
	c0.2,0.67,0.12,1.37-0.11,2.06c-0.14,0.43-0.27,0.95-0.17,1.37c0.3,1.25-0.07,2.48,0.03,3.71c0.07,0.87-0.4,1.65-0.65,2.46
	c-0.07,0.22-0.27,0.42-0.27,0.63c0,0.96-0.51,1.79-0.6,2.72c-0.04,0.33,0.04,0.63,0.26,0.87c0.25,0.27,0.29,0.52,0.06,0.81
	c-0.24,0.3-0.51,0.58-0.74,0.89c-0.14,0.19-0.19,0.42-0.06,0.65c0.17,0.29,0.19,0.61,0.05,0.89c-0.31,0.6,0.16,1.41-0.52,1.9
	c-0.18,0.67-0.18,1.39-0.54,2.02c-0.24,0.43-0.17,0.91-0.15,1.37c0,0.13,0.12,0.31,0.23,0.37c0.34,0.18,0.69,0.36,1.07,0.45
	c0.98,0.23,1.97,0.41,2.96,0.61c0.76,0.16,1.5,0.39,2.16,0.83c0.19,0.13,0.39,0.26,0.55,0.42c0.37,0.38,0.76,0.76,0.61,1.4
	c-0.04,0.2,0.14,0.44,0.19,0.66c0.06,0.29-0.13,0.5-0.54,0.58c-0.15,0.03-0.33-0.01-0.46,0.06c-0.11,0.06-0.25,0.24-0.23,0.34
	c0.06,0.29,0.22,0.57,0.28,0.86c0.2,0.94,0.03,1.26-0.81,1.68c-0.48,0.24-0.98,0.46-1.43,0.75c-0.35,0.22-0.69,0.31-1.09,0.32
	c-0.38,0.01-0.78,0.05-1.13,0.18c-0.39,0.14-0.72,0.1-1.12,0.02c-1.74-0.34-3.46-0.85-5.26-0.92c-0.62-0.02-1.23-0.05-1.85,0.01
	c-1.01,0.08-2.01,0.12-3.02,0.17c-0.93,0.04-1.86,0.12-2.74,0.48c-0.88-0.05-1.67,0.31-2.48,0.56c-0.89,0.27-1.79,0.58-2.7,0.69
	c-2.2,0.26-4.19,1.09-6.13,2.07c-0.07,0.03-0.13,0.07-0.28,0.15c-0.21,0.42-0.45,0.91-0.7,1.38c-0.25,0.48-0.53,0.94-0.78,1.39
	c0.38,0.62,0.46,1.16,0.05,1.77c-0.28,0.41-0.25,0.92,0.18,1.26c0.45,0.36,0.4,0.73,0.27,1.23c-0.15,0.55-0.36,0.97-0.8,1.36
	c-0.45,0.39-0.38,0.85,0.05,1.43c0.14,0.19,0.28,0.37,0.45,0.59c-0.46,0.81-0.9,1.63-0.8,2.62c0.01,0.14-0.03,0.34-0.12,0.44
	c-0.47,0.5-0.52,1.15-0.5,1.74c0.04,1.03-0.32,1.78-1.15,2.34c-0.22,0.15-0.21,0.18,0.25,0.51c0.25,0.19,0.23,0.61-0.06,0.73
	c-0.21,0.08-0.49,0.2-0.66,0.12c-0.65-0.3-1.32-0.43-2.03-0.42c-0.34,0.01-0.51-0.21-0.71-0.48c-0.31-0.42-0.75-0.74-1.09-1.16
	c-0.19-0.23-0.47-0.49-0.74-0.53c-0.89-0.12-1.3-0.76-1.73-1.42c-0.21-0.32-0.47-0.62-0.63-0.97c-0.31-0.65-1.17-0.87-1.32-1.59
	c-0.14-0.64-0.61-1.08-0.81-1.66c-0.14-0.41-0.49-0.54-0.85-0.71c-0.83-0.39-1.11-1.11-0.77-1.9c0.15-0.35,0.29-0.81,0.58-0.99
	c0.71-0.44,0.83-1.07,0.78-1.79c-0.09-1.41,0.12-2.79,0.29-4.18c0.29-2.35,0.01-4.65-0.66-6.9c-0.33-1.11-0.77-2.19-1.19-3.27
	c-0.3-0.8-0.58-1.62-0.98-2.37c-0.75-1.42-0.95-2.93-0.96-4.5c0-0.58,0.3-1.03,0.35-1.56c0.01-0.1-0.14-0.28-0.25-0.32
	c-0.12-0.05-0.35-0.04-0.43,0.04c-0.15,0.15-0.3,0.36-0.34,0.56c-0.15,0.71-0.49,1.27-1.06,1.75c-0.58,0.49-1.07,1.11-1.58,1.68
	c-0.31,0.35-0.58,0.73-0.87,1.09c0.01,0.06,0.01,0.13,0.04,0.19c0.3,0.53,0.29,0.54,0.03,0.69c-0.71,0.41-1.46,0.55-2.23,0.28
	c-0.3-0.1-0.55-0.18-0.88-0.07c-0.73,0.24-1.48,0.44-2.23,0.6c-0.55,0.12-1.08,0.03-1.53-0.36c-0.29-0.25-0.74-0.39-0.9-0.7
	c-0.42-0.77-1.19-1.21-1.66-1.93c-0.25-0.38-0.61-0.7-0.95-1.02c-0.09-0.08-0.28-0.05-0.43-0.07c0-0.07,0.01-0.13-0.01-0.19
	c-0.01-0.04-0.07-0.06-0.1-0.09c0.06,0.08,0.11,0.16,0.17,0.23c0.03,0.53-0.14,0.92-0.73,0.97c-0.49,0.04-0.57,0.44-0.73,0.79
	c-0.13,0.3-0.16,0.57,0,0.88c0.82,1.59,0.79,1.59,1.13,3.23c0.25,1.21,0.57,2.41,0.85,3.62c0.1,0.45,0.2,0.91,0.29,1.36
	c0.04,0.23,0.02,0.48,0.11,0.69c0.93,2.16,1,4.52,1.62,6.75c0.12,0.42-0.18,0.89,0.09,1.35c0.21,0.34,0.15,0.75,0.11,1.14
	c-0.02,0.23-0.02,0.48,0.06,0.69c0.63,1.62,0.5,3.36,0.75,5.04c0.12,0.83,0.42,1.66,0.21,2.52c-0.03,0.13,0.04,0.32,0.11,0.44
	c0.57,0.95,0.42,1.94,0.2,2.93c-0.02,0.07-0.04,0.15-0.07,0.22c-0.26,0.82-0.43,1.65-0.41,2.52c0.01,0.79-0.24,1.53-0.65,2.21
	c-0.44,0.73-0.85,1.47-1.12,2.3c-0.19,0.59-2.42,2.9-3.01,3.17c-0.48,0.23-1.01,0.37-1.53,0.52c-0.24,0.07-0.5-0.05-0.61-0.25
	c-0.48-0.85-1.2-1.38-2.08-1.78c-1.04-0.48-1.66-1.38-2-2.46c-0.02-0.07-0.02-0.15-0.04-0.23c-0.19-0.98-0.92-1.38-1.77-1.65
	c-0.15-0.05-0.31-0.03-0.46-0.05c-0.43-0.05-1.01,0.08-0.89-0.69c-0.54-0.48-1.14-0.8-1.89-0.69c-0.38,0.06-0.77,0.12-1.13,0.25
	c-0.77,0.28-1.5,0.29-2.25-0.08c-1.14-0.55-2.39-0.63-3.64-0.69c-0.26-0.01-0.61,0.3-0.64,0.57c-0.04,0.31-0.11,0.62-0.08,0.92
	c0.06,0.62,0.14,1.23-0.12,1.84c-0.06,0.13-0.08,0.33-0.03,0.45c0.36,0.82,0.05,1.5-0.36,2.19c-0.28,0.48-0.38,1-0.41,1.56
	c-0.04,0.77-0.13,1.55-0.27,2.31c-0.05,0.28-0.29,0.53-0.46,0.78c-0.2,0.29-0.5,0.28-0.83,0.26c-0.48-0.03-0.72,0.19-0.77,0.63
	c-0.03,0.31-0.02,0.62-0.04,0.93c-0.02,0.3-0.23,0.58-0.37,0.51c-0.13-0.05-0.3-0.12-0.35-0.23c-0.19-0.45-0.49-0.56-0.92-0.35
	c-0.4,0.19-0.73,0.17-1.02-0.21c-0.14-0.19-0.34-0.29-0.6-0.23c-0.84,0.21-1.31-0.33-1.7-0.91c-0.22-0.33-0.42-0.59-0.77-0.8
	c-0.72-0.45-1.38-1-2.05-1.52c-0.12-0.09-0.27-0.2-0.31-0.34c-0.48-1.37-1.39-2.63-1.11-4.21c0.1-0.53,0.16-1.09,0.1-1.63
	c-0.17-1.59,0.07-3.09,0.78-4.52c0.03-0.07,0.03-0.15,0.05-0.23c0.05-0.2-0.12-0.55-0.3-0.55c-0.93-0.03-1.86-0.13-2.78-0.03
	c-0.67,0.07-1.31,0.41-1.95,0.65c-0.14,0.05-0.25,0.22-0.39,0.24c-0.81,0.14-1.33,1.19-2.32,0.75c-0.5,0.79-1.56,0.63-2.16,1.25
	c-0.16,0.16-0.39,0.26-0.59,0.35c-0.25,0.12-0.91-0.03-1.09-0.24c-0.42-0.48-0.72-1.02-0.82-1.65c-0.03-0.22-0.05-0.51,0.06-0.68
	c0.79-1.12,0.99-2.4,1.09-3.71c0.04-0.43,0.32-0.69,0.74-0.78c0.08-0.02,0.16-0.03,0.22-0.07c0.51-0.27,0.71-0.77,0.54-1.34
	c-0.09-0.3-0.18-0.59-0.26-0.89c-0.06-0.23,0.09-0.43,0.36-0.5c0.45-0.12,0.9-0.26,1.35,0.02c0.13,0.08,0.27,0.15,0.41,0.22
	c0.3,0.16,0.57,0.17,0.85-0.06c0.24-0.19,0.47-0.47,0.75-0.52c1.34-0.28,2.37-1.13,3.44-1.87c0.64-0.44,1.28-0.88,1.93-1.29
	c0.59-0.37,1.16-0.78,1.78-1.09c0.6-0.29,1-0.69,1.21-1.33c0.18-0.55,0.63-0.87,1.17-1.06c0.22-0.08,0.4-0.21,0.42-0.48
	c0.61,0.07,1.18,0.09,1.71-0.36c0.39-0.33,0.89-0.55,1.33-0.83c0.03-0.02,0.03-0.15,0-0.2c-0.03-0.06-0.12-0.14-0.17-0.14
	c-0.59,0.07-1.24,0.02-1.62,0.63c-0.52,0.17-0.97,0.43-1.2,0.96c-0.72,0.06-0.87-0.44-1-0.99c-0.06-0.24-0.28-0.33-0.55-0.22
	c-0.13,0.05-0.23,0.18-0.35,0.27l0.05-0.04c-0.42,0.32-0.91,0.54-1.05,1.17c-0.1,0.43-0.47,0.79-0.55,1.27
	c-0.05,0.31-0.15,0.31-0.72,0.14c-0.14-0.04-0.31-0.12-0.42-0.07c-0.49,0.23-0.99,0.45-1.36,0.88c-0.25,0.29-0.51,0.59-0.81,0.83
	c-0.23,0.19-0.54,0.41-0.81,0.41c-0.64-0.01-1.21,0.18-1.8,0.39c-0.17,0.06-0.45-0.08-0.62-0.2c-0.19-0.13-0.23-0.31-0.11-0.58
	c0.12-0.29-0.02-0.44-0.27-0.45c-0.77-0.04-1.52-0.06-2.29,0.25c-0.55,0.22-1.22,0.17-1.84,0.19c-0.24,0.01-0.39-0.21-0.47-0.44
	c0.2-0.07,0.41-0.1,0.58-0.21c0.08-0.05,0.09-0.23,0.1-0.36c0-0.04-0.11-0.14-0.15-0.13c-0.13,0.03-0.28,0.08-0.37,0.17
	c-0.17,0.15-0.21,0.36-0.11,0.58c-0.46-0.06-0.92-0.15-1.38-0.16c-0.64-0.01-1.22-0.16-1.74-0.54c-0.4-0.3-0.87-0.29-1.33-0.12
	c-0.22,0.08-0.43,0.19-0.65,0.25c-0.37,0.1-0.84-0.15-0.93-0.51c-0.18-0.67-0.22-1.37-0.57-2c-0.09-0.17,0-0.46,0.07-0.67
	c0.06-0.17,0.09-0.32-0.08-0.4c-0.28-0.13-0.59-0.19-0.85-0.34c-0.19-0.11-0.43-0.29-0.47-0.47c-0.24-1.23-1.07-2.23-1.31-3.45
	c-0.04-0.22-0.13-0.52-0.03-0.67c0.63-0.92-0.15-1.22-0.69-1.61c-0.12-0.08-0.29-0.08-0.44-0.13c-0.63-0.22-0.89-0.61-0.8-1.18
	c0.19-1.09,0.57-2.1,1.37-2.89c0.33-0.33,0.69-0.63,1.06-0.91c1.83-1.33,3.47-2.83,4.73-4.76c0.71-1.1,1.77-1.94,2.74-2.82
	c0.4-0.36,0.85-0.68,1.27-1.02c0.24-0.19,0.54-0.35,0.71-0.6c1.07-1.53,2.67-2.58,3.72-4.13c0.26-0.38,0.59-0.74,0.95-1.03
	c0.43-0.35,0.81-0.74,1.07-1.21c0.42-0.77,0.99-1.38,1.77-1.8c0.59-0.79,1.5-1.05,2.42-1.43c0.25,0.24,0.49,0.55,0.81,0.73
	c0.33,0.19,0.74,0.22,1.11,0.35c0.73,0.26,1.52,0.34,2.18,0.8c0.19,0.13,0.39,0.26,0.52,0.43c0.17,0.23-0.05,0.42-0.13,0.63
	c-0.05,0.13-0.06,0.3-0.03,0.44c0.07,0.31,0.16,0.62-0.21,0.78c-0.62,0.27-0.92,0.79-1.17,1.38c-0.14,0.31-0.11,0.6,0.04,0.88
	c0.15,0.27-0.02,0.43-0.19,0.57c-0.26,0.21-0.47,0.46-0.3,0.79c0.19,0.39,0.02,0.76,0.04,1.13c0.01,0.37-0.24,0.57-0.54,0.67
	c-0.37,0.12-0.75,0.18-1.12,0.27c-0.22,0.06-0.27,0.33-0.11,0.56c0.84,1.23,0.87,1.27-0.21,1.93c-0.89,0.55-1.2,1.38-1.33,2.32
	c-0.01,0.07,0.21,0.26,0.32,0.25c0.46-0.02,0.94-0.02,1.38-0.15c0.91-0.27,1.82-0.34,2.76-0.33c1.94,0.02,3.89-0.04,5.73-0.81
	c1.03-0.06,1.96-0.47,2.9-0.83c0.94-0.36,1.89-0.69,2.89-0.86c0.59-0.1,0.59-0.15,1.1,0.48c-0.1,0.28-0.19,0.57-0.29,0.85
	c0.17,0.05,0.32,0.16,0.45,0.14c0.53-0.1,1.05-0.25,1.58-0.36c0.14-0.03,0.35-0.05,0.42,0.02c0.65,0.71,1.47,0.18,2.2,0.29
	c0.43,0.07,0.9-0.22,1.34-0.2c0.45,0.01,0.89,0.21,1.35,0.3c0.14,0.03,0.3-0.05,0.47-0.08c-0.03-0.11-0.03-0.25-0.1-0.33
	c-0.32-0.34-0.61-0.77-1.01-0.96c-0.78-0.36-1.21-1-1.52-1.7c-0.48-1.09-1.13-2.01-1.99-2.83c-0.92-0.88-1.23-2.56-0.56-3.66
	c0.56-0.91,0.46-1.95,0.86-2.87c0.05-0.12,0.01-0.31-0.04-0.45c-0.17-0.46-0.16-0.91-0.01-1.37c0.05-0.15,0.09-0.3,0.09-0.46
	c-0.04-2.1,0.43-4.16,0.57-6.25c0.11-1.78,0.3-3.56,0.7-5.31c0.09-0.38,0.14-0.77,0.16-1.15c0.15-2.87,0.63-5.71,1.08-8.54
	c0.15-0.92,0.34-1.83,0.55-2.74c0.28-1.21,0.52-2.43,0.72-3.65c0.16-0.92,0.36-1.85,0.71-2.7c0.51-1.22,0.89-2.47,1.22-3.78
	c0.18-0.11,0.39-0.21,0.58-0.34c1.7-1.12,1.75-1.1,2.48-2.9c0.62-1.52,1.38-2.95,2.43-4.22c0.44-0.53,0.9-1.09,1.19-1.71
	c0.27-0.56,0.78-0.94,0.96-1.56c0.13-0.42,0.49-0.77,0.75-1.15l-0.06,0.06c0.18-0.13,0.36-0.25,0.52-0.4
	c0.28-0.27,0.24-0.34-0.25-0.47c-0.07-0.02-0.14-0.04-0.21-0.06l-0.06-0.06c0.13-0.18,0.22-0.41,0.39-0.54
	c0.55-0.42,1.12-0.83,1.71-1.2c0.34-0.21,0.57-0.49,0.83-0.78c0.63-0.7,1.41-1.16,2.4-1.26c1.73-0.17,3.2,0.47,4.54,1.44
	c1,0.73,1.96,1.53,2.9,2.33c0.77,0.65,1.5,1.33,1.91,2.3c0.24,0.56,0.69,1.03,0.96,1.59c0.24,0.47,0.35,1.01,0.54,1.51
	c0.58,1.52,1.19,3.03,1.73,4.56c0.18,0.5,0.23,1.06,0.27,1.6c0.18,2.17,0.49,4.31,0.95,6.44c0.34,1.59,0.48,3.22,0.69,4.83
	c0.04,0.3,0,0.61-0.01,0.91c-0.04,0.78-0.08,1.55-0.15,2.32c-0.03,0.34,0.08,0.6,0.24,0.87c0.21,0.35,0.3,0.76,0.13,1.12
	c-0.35,0.72-0.45,1.45-0.38,2.23c0.02,0.3-0.08,0.61-0.15,0.91c-0.07,0.26,0.03,0.44,0.2,0.61c0.16,0.18,0.17,0.37,0.14,0.62
	c-0.14,0.99-0.68,1.9-0.64,2.93c0.01,0.23,0.03,0.46,0.04,0.69c0.03-0.06-0.23,0.16-0.05-0.05c0.15,0.03,0.31,0.04,0.45,0.1
	c0.38,0.15,0.53,0.54,0.26,0.7c-0.59,0.34-0.5,0.89-0.53,1.39c-0.01,0.21,0.16,0.42,0.23,0.64c0.19,0.59,0,1.03-0.51,1.39
	c-0.29,0.21-0.26,0.26,0.09,0.37c0.07,0.02,0.15,0,0.23,0.01c0.36,0.05,0.51,0.5,0.38,0.7c-0.41,0.65-0.84,1.29-1.27,1.95
	c0.17,0.15,0.38,0.33,0.6,0.51c-0.11,0.42-0.56,0.79-0.16,1.29c0.06,0.08,0.01,0.29-0.04,0.42c-0.24,0.57-0.5,1.13-0.75,1.69
	c-0.06,0.15-0.3,2.02-0.22,2.2c0.14,0.31,0.15,0.58-0.02,0.87c-0.07,0.13-0.15,0.31-0.11,0.44c0.26,0.87-0.1,1.52-0.76,1.97
	c-0.54,0.36-0.79,0.93-1.22,1.4c0.24,0.05,0.47,0.08,0.68,0.15c0.24,0.08,0.35,0.26,0.35,0.52c-0.17,0.17-0.34,0.34-0.5,0.51
	c-0.16,0.14-0.32,0.29-0.48,0.43c-0.34,0.07-0.79-0.03-0.76,0.58c0.01,0.15-0.26,0.3-0.39,0.47c-0.04,0.05-0.04,0.17,0,0.22
	c0.03,0.05,0.14,0.08,0.21,0.08c0.71-0.02,0.97-0.26,0.99-0.95c0-0.15-0.07-0.29-0.11-0.44c0.3,0.01,0.44-0.15,0.48-0.43
	c0.17-0.17,0.34-0.34,0.51-0.51c0.54-0.24,1.07-0.13,1.59,0.06c1.1,0.39,2.21,0.74,3.29,1.18c0.86,0.34,1.61,0.31,2.44-0.15
	c0.74-0.42,1.57-0.63,2.42-0.81c1.52-0.31,3.03-0.68,4.55-1.02c0.3-0.06,0.63-0.13,0.92-0.07c0.98,0.18,1.86-0.09,2.68-0.56
	c0.63-0.36,1.24-0.61,1.98-0.45c0.14,0.03,0.34,0,0.45-0.08c0.61-0.45,1.34-0.34,2.02-0.49c1.22-0.27,2.43-0.49,3.69-0.44
	c0.3,0.01,0.61-0.11,0.9-0.21c0.38-0.13,0.68-0.36,0.81-0.76c0.35-1.03,0.71-2.07,0.76-3.16c0.05-1.09,0.19-2.17,0.42-3.23
	c0.15-0.69-0.1-1.21-0.46-1.78c0.36-2.65,0.5-5.37,1.24-8c0.02-0.08,0.04-0.15,0.05-0.23c0.2-1.41,0.02-1.74-1.34-2.28
	c-0.64-0.25-1.38-0.36-1.75-1.06c-0.75-0.42-0.94-1.2-1.2-1.93c-0.07-0.21-0.05-0.47-0.01-0.69c0.06-0.38,0.17-0.75,0.28-1.18
	c0.72-0.37,1.53-0.69,1.95-1.5c0.66,0.54,1.27,0.75,2,0.84c1.09,0.13,2.05,0.68,2.92,1.36c0.17,0.14,0.26,0.38,0.39,0.57
	c0.13,0.18,0.26,0.36,0.38,0.55c0.53-0.44,1.06-0.29,1.53,0c0.61,0.38,0.99,0.98,1.35,1.58c0.06,0.1,0.03,0.31-0.03,0.43
	c-0.14,0.27-0.33,0.52-0.48,0.79c-0.12,0.22-0.06,0.49,0.12,0.63c0.18,0.14,0.39,0.26,0.55,0.42c0.21,0.2,0.39,0.12,0.61,0.04
	c0.35-0.12,0.53-0.04,0.49,0.18c-0.15,0.7,0.04,1.2,0.69,1.55c0.19,0.1,0.29,0.37,0.47,0.51c0.49,0.38,0.27,0.82,0.15,1.25
	c-0.05,0.03-0.11,0.05-0.16,0.09c-0.02,0.02-0.02,0.07-0.04,0.1C454.64,252.96,454.68,252.88,454.73,252.8z M363.15,278.53
	c0.06,0,0.14,0.01,0.19-0.02c0.03-0.01,0.04-0.14,0.03-0.14c-0.14-0.05-0.2,0.02-0.18,0.21c-0.15-0.06-0.26-0.02-0.3,0.13
	c-0.01,0.03,0.09,0.13,0.12,0.12C363.18,278.79,363.22,278.68,363.15,278.53z M378.28,293.34c0.64,0.07,1.21,0.03,1.71,0.2
	c1.11,0.37,2.22,0.67,3.35,0.94c0.75,0.18,1.47,0.47,2.14,0.89c0.7,0.43,1.14,1.06,1.45,1.77c0.18,0.41,0.29,0.93-0.02,1.34
	c-0.36,0.48-0.35,1.01-0.37,1.55c-0.03,0.79-0.56,1.25-1.15,1.64c-0.12,0.08-0.29,0.13-0.44,0.13c-1.24-0.06-2.45,0.07-3.66,0.34
	c-0.51,0.12-1.07,0.04-1.61,0.05c-0.74-0.48-1.48-0.27-2.23,0c-0.21,0.07-0.46,0.03-0.69,0.01c-0.4-0.05-0.55,0.24-0.68,0.51
	c-0.12,0.28-0.22,0.59-0.26,0.89c-0.13,0.95,0.08,1.85,0.37,2.75c0.16,0.5,0.49,0.77,1,0.83c1.69,0.21,3.37,0.45,4.99,1.03
	c0.15,0.05,0.3,0.14,0.44,0.13c1.17-0.06,2.3,0.18,3.42,0.46c0.21,0.05,0.47-0.01,0.68-0.09c0.29-0.11,0.6-0.24,0.8-0.46
	c0.54-0.61,1.15-0.74,1.88-0.43c0.14,0.06,0.32,0.1,0.45,0.05c0.74-0.23,1.56-0.09,2.24-0.51c0.21-0.6,0.29-1.23,0.67-1.74
	c0.15-0.2,0.11-0.45-0.01-0.65c-0.2-0.35-0.25-0.72-0.23-1.12c0.04-0.54,0.04-1.09,0.04-1.63c0-1.16-0.01-2.32-0.02-3.48
	c-0.43-1.44-0.39-2.91-0.35-4.39c0.01-0.23-0.06-0.46-0.1-0.69c-0.17-0.91-0.4-1.82-0.49-2.74c-0.11-1.09-0.3-2.15-0.68-3.18
	c-0.25-0.67-0.3-1.36-0.34-2.06c-0.07-1.33-0.49-2.58-1-3.8c-0.13-0.3-0.41-0.47-0.72-0.53c-0.38-0.07-0.77-0.12-1.15-0.12
	c-1.28,0.01-2.42,0.49-3.54,1.03c-0.94,0.45-1.77,0.96-1.99,2.1c-0.06,0.28-0.3,0.53-0.47,0.79c-0.17,0.26-0.36,0.5-0.53,0.76
	c-0.08,0.13-0.19,0.29-0.18,0.42c0.02,0.21,0.08,0.53,0.23,0.6c0.42,0.19,0.89,0.26,1.32,0.43c0.09,0.03,0.19,0.31,0.14,0.39
	c-0.71,1.19-1.27,2.48-2.14,3.58c-0.1,0.12-0.16,0.28-0.28,0.37c-0.18,0.14-0.38,0.32-0.59,0.35
	C379,292.17,378.63,292.62,378.28,293.34z M399.65,234.17c0.48,0.23,0.89,0.45,1.32,0.62c0.36,0.14,0.73,0.3,1.1,0.32
	c0.79,0.04,1.52,0.26,2.22,0.61c0.27,0.14,0.59,0.16,0.89,0.25c0.17,0.05,0.52-0.18,0.52-0.34c-0.02-0.77,0.04-1.57-0.1-2.32
	c-0.27-1.45-0.41-2.92-0.85-4.33c-0.18-0.59-0.29-1.21-0.39-1.82c-0.2-1.3-0.37-2.61-0.56-3.91c-0.02-0.15-0.11-0.29-0.16-0.43
	c-0.05-0.16-0.42-0.36-0.57-0.31c-0.82,0.29-1.57,0.7-2.07,1.42c-0.87,1.28-1.88,2.45-2.86,3.65c-0.3,0.37-0.56,0.74-0.72,1.18
	c-0.21,0.58-0.4,1.17-0.67,1.72c-0.29,0.58-0.3,1.19-0.39,1.8c-0.09,0.6-0.28,1.19-0.39,1.79c-0.09,0.5,0.36,0.94,0.82,0.83
	C397.69,234.69,398.58,234.45,399.65,234.17z M441.03,283.1c-0.37-0.58-0.81-0.77-1.19-1.03c-0.27-0.19-0.57-0.16-0.88-0.04
	c-0.28,0.11-0.59,0.16-0.89,0.19c-0.24,0.03-0.44-0.09-0.58-0.29c-0.12-0.17-0.22-0.38-0.52-0.29c-1,0.32-1.98,0.26-2.95-0.15
	c-0.86,0-1.57-0.59-2.44-0.63c-0.19-0.01-0.41-0.21-0.54-0.38c-0.2-0.27-0.43-0.39-0.78-0.38c-1.39,0.02-2.76-0.29-4.16-0.12
	c-0.44,0.05-0.91-0.14-1.37-0.22c-0.75-0.13-1.51-0.21-2.27-0.19c-0.25,0-0.55,0.48-0.45,0.7c0.06,0.14,0.09,0.3,0.18,0.43
	c0.82,1.21,1.74,2.37,2.33,3.73c0.09,0.2,0.28,0.37,0.47,0.5c0.33,0.23,0.55,0.53,0.71,0.9c0.21,0.5,0.39,1.02,0.66,1.48
	c0.54,0.94,0.72,1.19,1.76,0.53c2.3-1.47,4.86-2.36,7.45-3.16C437.33,284.13,439.12,283.65,441.03,283.1z M406.69,257.07
	c-0.04-0.38-0.06-0.77-0.13-1.14c-0.02-0.1-0.2-0.23-0.33-0.25c-0.41-0.08-0.78,0.07-1.07,0.34c-1.01,0.94-2.14,1.81-2.4,3.31
	c-0.92,1.29-0.89,2.96-1.72,4.3c-0.03,0.06-0.03,0.16,0,0.22c0.24,0.5,0.03,0.86-0.31,1.24c-0.28,0.3-0.25,0.75-0.12,1.11
	c0.25,0.73,0.59,1.44,0.83,2.17c0.29,0.91,0.99,1.36,1.77,1.72c0.11,0.05,0.34,0.02,0.43-0.07c0.44-0.43,0.85-0.89,1.27-1.34
	c0.28-0.3,0.43-0.65,0.38-1.06c-0.08-0.7-0.23-1.41,0.04-2.08c0.68-1.68,0.63-3.5,0.96-5.24
	C406.48,259.24,406.56,258.15,406.69,257.07z M406.67,247.88c-0.06-1.37-0.02-2.68-0.39-3.95c-0.11-0.36-0.09-0.76-0.17-1.13
	c-0.08-0.37-0.86-0.61-1.16-0.38c-0.18,0.14-0.4,0.27-0.5,0.46c-0.28,0.55-0.5,1.12-0.74,1.68c-0.19,0.45-0.5,0.7-1,0.85
	c-0.62,0.19-0.71,0.86-0.18,1.24c1.19,0.87,2.12,1.99,3.07,3.09c0.19,0.22,0.47,0.37,0.73,0.54c0.18,0.11,0.28,0.03,0.33-0.18
	C406.88,249.35,406.6,248.58,406.67,247.88z M396.25,267.64c-0.61-0.41-1.12-0.76-1.63-1.1c-0.15-0.1-0.51,0.03-0.59,0.2
	c-0.19,0.43-0.35,0.86-0.21,1.34c0.06,0.22,0.13,0.45-0.06,0.64c-0.15,0.15-0.14,0.24-0.03,0.37c0.48,0.56,0.5,0.57,0.46,0.9
	c-0.05,0.39-0.05,0.77,0.13,1.13c0.45,0.89,0.89,1.79,1.35,2.68c0.03,0.06,0.11,0.12,0.18,0.14c0.13,0.04,0.3,0.11,0.39,0.06
	c0.36-0.2,0.59-0.66,0.5-0.96c-0.2-0.66-0.4-1.33-0.61-1.99c-0.11-0.35,0.08-0.59,0.24-0.85c0.08-0.13,0.15-0.27,0.21-0.38
	C396.47,269.14,396.37,268.46,396.25,267.64z M394.53,250.31c0.65-0.57,0.69-1.13,0.91-1.61c0.23-0.49,0.52-0.94,0.77-1.42
	c0.07-0.13,0.09-0.3,0.1-0.45c0.12-1.4-0.01-2.77-0.6-4.06c-0.01-0.03-0.11-0.04-0.17-0.03c-0.07,0.02-0.17,0.05-0.2,0.1
	c-0.12,0.19-0.27,0.39-0.31,0.6c-0.11,0.6-0.01,1.22-0.33,1.8c-0.14,0.25-0.17,0.62-0.11,0.9c0.18,0.78-0.02,1.53-0.06,2.29
	C394.51,248.98,394.53,249.52,394.53,250.31z M362.53,298.07c-0.09-0.09-0.18-0.26-0.28-0.26c-0.49-0.04-0.81,0.31-1.16,0.57
	c-0.06,0.04-0.02,0.25,0.01,0.37c0.01,0.04,0.13,0.11,0.17,0.09c0.4-0.17,0.8-0.36,1.2-0.55
	C362.51,298.26,362.51,298.15,362.53,298.07z M412.93,273.6c-0.26,0.26-0.29,0.54-0.17,0.85c0.08,0.2,0.37,0.33,0.56,0.21
	c0.19-0.12,0.34-0.29,0.57-0.5C413.53,273.95,413.23,273.77,412.93,273.6z M365.88,309.31c0.15-0.02,0.3-0.02,0.44-0.06
	c0.06-0.02,0.1-0.11,0.15-0.16c-0.06-0.05-0.11-0.12-0.18-0.13c-0.14-0.03-0.3-0.07-0.45-0.05c-0.14,0.01-0.29,0.07-0.4,0.14
	C365.3,309.14,365.55,309.3,365.88,309.31z M350.27,295.33c0.14-0.06,0.27-0.12,0.41-0.19c-0.12-0.08-0.24-0.21-0.37-0.22
	c-0.29-0.04-0.56,0.16-0.44,0.26C349.97,295.26,350.13,295.28,350.27,295.33z M418.16,255.73c0.01-0.06,0.03-0.13,0.02-0.19
	c-0.01-0.04-0.07-0.08-0.11-0.12c-0.03,0.06-0.07,0.11-0.08,0.17c-0.01,0.06,0.03,0.12,0.05,0.19
	C418.08,255.76,418.12,255.74,418.16,255.73z M377.89,308.24c-0.13-0.04-0.25-0.11-0.37-0.13c-0.05-0.01-0.11,0.07-0.17,0.11
	c0.05,0.04,0.11,0.13,0.16,0.12C377.64,308.33,377.76,308.28,377.89,308.24z M366.65,308.13l-0.08,0.13l0.13,0.02L366.65,308.13z
	 M365.73,296.64l0.08-0.13l-0.13-0.01L365.73,296.64z"/>
<path class="st0" d="M501.56,271.44c-0.23,0.11-0.34,0.29-0.38,0.53c-0.16,1.08-0.31,2.15-0.47,3.23c-0.17,1.07-0.36,2.15-0.53,3.22
	c-0.17,1.07-0.17,2.16-0.4,3.24c-0.17,0.83-0.14,1.7-0.13,2.56c0,1.94-0.11,3.87-0.38,5.8c-0.03,0.23-0.08,0.47-0.07,0.7
	c0.06,1.64-0.31,3.25-0.47,4.87c-0.12,1.23-0.39,2.45-0.58,3.67c-0.17,1.07-0.4,2.13-0.61,3.19c-0.2,1.07-0.4,2.14-0.61,3.21
	c-0.14,0.7-0.05,1.4,0.08,2.08c0.06,0.34-0.07,0.61-0.23,0.87c-0.16,0.26-0.32,0.52-0.49,0.78c-0.26,0.41-0.86,0.47-1.19,0.05
	c-0.66-0.85-1.42-1.64-1.89-2.62c-0.14-0.28-0.24-0.58-0.4-0.84c-0.62-1.01-1.09-2.05-1.06-3.27c0.01-0.3-0.1-0.61-0.19-0.91
	c-0.16-0.53-0.21-1.08-0.1-1.61c0.26-1.23,0.25-2.48,0.25-3.72c-0.01-1.56,0.08-3.11,0.51-4.62c0.39-1.35,0.49-2.75,0.68-4.13
	c0.44-3.15,1.21-6.24,1.73-9.38c0.22-1.29,0.65-2.55,1.01-3.82c0.03-0.1,0.24-0.16,0.36-0.23l-0.06-0.05c0.1,1.58-0.4,3.07-0.63,4.6
	c-0.07,0.46-0.19,0.92-0.19,1.38c0,0.79-0.16,1.55-0.24,2.32c-0.12,1.16-0.44,2.29-0.42,3.47c0.02,1.09-0.43,2.13-0.37,3.23
	c0.02,0.38-0.1,0.77-0.22,1.14c-0.12,0.38-0.17,0.75-0.03,1.13c0.11,0.31,0.01,0.6-0.04,0.91c-0.3,1.76-0.29,2.67,0.06,4.37
	c0.07,0.33-0.02,0.6-0.15,0.89c-0.17,0.37-0.19,0.75-0.1,1.14c0.02,0.07,0.08,0.15,0.15,0.17c0.04,0.02,0.15-0.02,0.18-0.07
	c0.15-0.27,0.36-0.52,0.43-0.81c0.41-1.66,0.82-3.32,1.18-4.99c0.21-0.99,0.32-1.99,0.49-2.99c0.18-1.07,0.53-2.11,0.41-3.22
	c-0.02-0.22,0.06-0.47,0.16-0.67c0.21-0.44,0.19-0.89,0.2-1.36c0.01-1,0-2.04,0.23-3c0.22-0.92,0.21-1.85,0.33-2.77
	c0.15-1.23,0.35-2.46,0.48-3.69c0.1-0.92,0.33-1.82,0.28-2.76c-0.03-0.45,0.13-0.92,0.24-1.37c0.08-0.31,0.07-0.59,0-0.91
	c-0.07-0.29-0.13-0.65-0.03-0.91c0.3-0.75,0.25-1.52,0.29-2.3c0.07-1.24,0.05-2.49,0.39-3.7c0.11-0.37,0.13-0.76,0.16-1.15
	c0.08-0.93,0.06-1.87,0.21-2.79c0.15-0.93-0.16-1.83,0.04-2.77c0.2-0.9,0.23-1.85,0.25-2.78c0.04-2.18,0.03-4.36,0.05-6.54
	c0.01-0.7,0-1.41,0.1-2.1c0.27-1.93,0.45-3.85,0-5.78c-0.05-0.22-0.02-0.47-0.03-0.7c-0.01-0.83,0.27-1.25,1.18-1.46
	c0.48-0.11,0.87-0.22,1.15-0.66c0.3-0.48,0.76-0.78,1.33-0.85c0.71-0.09,1.31-0.48,1.92-0.81c0.42-0.23,0.72-0.59,0.72-1.12
	c0.01-0.47,0.07-0.95,0.48-1.26c0.61-0.47,1.18-1.04,2.05-0.99c0.31,0.02,0.62-0.01,0.93-0.02c0.72-0.02,1.38,0.14,1.96,0.6
	c0.49,0.39,1.01,0.73,1.52,1.09c0.44,0.31,0.86,0.69,1.34,0.93c1.11,0.56,2.13,1.23,3.06,2.08c0.85,0.78,1.75,1.54,2.62,2.31
	c0.96,0.85,1.48,1.99,2.21,2.99c0.09,0.12,0.13,0.29,0.15,0.44c0.18,1.7,0.75,3.33,0.67,5.07c-0.07,1.63,0.21,3.24,0.69,4.82
	c0.31,1.05,0.38,2.13,0.27,3.22c-0.1,0.94,0,1.83,0.27,2.75c0.39,1.34,0.63,2.71,0.52,4.13c-0.06,0.77,0.04,1.56-0.02,2.33
	c-0.06,0.76-0.37,1.5-0.04,2.27c0.05,0.13,0.05,0.33-0.01,0.45c-0.42,0.84-0.2,1.63,0.08,2.47c0.29,0.88,0.46,1.81,0.01,2.72
	c-0.05,1.48,0.01,2.94,0.37,4.39c0.11,0.45,0.23,0.9,0.37,1.34c0.1,0.3,0.12,0.58,0.04,0.9c-0.25,1-0.13,1.98,0.14,2.97
	c0.31,1.12,0.6,2.24,0.65,3.41c0.02,0.45,0.11,0.89,0.03,1.37c-0.08,0.53-0.07,1.08-0.07,1.63c0,0.7,0.49,1,1.07,0.63
	c1.06-0.69,2.18-1.18,3.44-1.33c0.37-0.05,0.74-0.22,1.1-0.37c0.64-0.27,1.27-0.61,1.92-0.85c3.07-1.15,5.95-2.69,8.79-4.3
	c1.35-0.77,2.61-1.68,3.91-2.53c1.62-1.7,3.7-2.82,5.44-4.37c0.32-0.28,0.46-0.62,0.41-1.03c-0.2-1.38-0.4-2.77-0.64-4.14
	c-0.09-0.54-0.21-1.06-0.04-1.62c0.32,0.23,0.64,0.46,0.95,0.67c0.42,1.41,0.6,2.91,1.79,4.02c0.81-0.56,1.39-1.29,1.99-1.99
	c0.61-0.71,1.2-1.43,1.77-2.16c0.38-0.49,0.74-1,1.09-1.51c0.65-0.97,1.2-2,2.02-2.85c1-1.04,1.48-2.36,1.85-3.72
	c0.26-0.98,0.54-1.95,0.74-2.93c0.19-0.92,0.46-1.8,0.8-2.67c0.14-0.34,0.13-0.76,0.14-1.14c0.01-0.41-0.51-0.69-0.83-0.46
	c-0.64,0.45-1.3,0.83-2.03,1.12c-0.57,0.23-1.11,0.57-1.59,0.96c-0.38,0.31-0.77,0.51-1.22,0.64c-0.22,0.06-0.44,0.16-0.63,0.28
	c-0.91,0.58-1.79,1.25-2.82,1.58c-1.05,0.33-1.87,1.1-2.93,1.43c-0.99,0.3-1.7,1.06-2.43,1.76c-0.23,0.22-0.64,0.08-0.73-0.24
	c-0.12-0.44-0.23-0.89-0.35-1.34c0.3-0.54,0.61-1.07,0.9-1.63c0.46-0.91,1.09-1.68,1.84-2.37c2.71-2.5,5.8-4.41,9.22-5.79
	c0.72-0.29,1.47-0.49,2.2-0.74c0.52-0.17,1.05-0.31,1.54-0.53c0.17-0.07,0.35-0.34,0.37-0.53c0.07-0.85,0.08-1.71,0.1-2.56
	c0.01-0.38-0.53-0.93-0.93-0.89c-0.46,0.05-0.92,0.11-1.37,0.24c-0.55,0.16-1.07,0.14-1.58-0.11c-0.14-0.07-0.28-0.14-0.43-0.19
	c-0.52-0.17-1.04-0.32-1.55-0.48c-0.75,0.2-1.55,0.29-2.23,0.62c-1.26,0.61-2.47,1.32-3.79,1.8c-0.2,0.07-0.36,0.28-0.54,0.42
	c-0.3,0.24-0.59,0.5-0.91,0.7c-1.37,0.88-2.7,1.81-4.07,2.68c-1.23,0.8-2.46,1.62-3.78,2.28c-0.28,0.14-0.55,0.31-0.78,0.52
	c-1.29,1.13-2.82,1.89-4.26,2.8c-0.87,0.55-1.86,0.79-2.8,1.15c-0.63,0.24-0.98,0.12-1.38-0.49c-0.56-0.84-1.1-1.69-1.61-2.48
	c0.05-1.17,0.71-1.94,1.33-2.72c0.26-0.32,0.25-0.32,0.44-1.16c0.03-0.14,0.11-0.29,0.2-0.4c0.13-0.17,0.29-0.32,0.45-0.48
	c-0.21-0.28-0.41-0.52-0.57-0.78c-0.25-0.39,0.11-1.08,0.56-1c0.71,0.12,1.38-0.03,2.07-0.07c1.3-0.07,2.44-0.57,3.43-1.31
	c1.44-1.08,3.18-1.65,4.53-2.85c0.84-0.39,1.69-0.79,2.53-1.18c0.28-0.13,0.62-0.2,0.84-0.4c1.28-1.18,2.94-1.73,4.36-2.68
	c0.39-0.26,0.8-0.48,1.21-0.7c0.63-0.33,1.19-0.73,1.54-1.38c0.24-0.45,0.69-0.62,1.15-0.73c0.37-0.09,0.76-0.13,1.15-0.15
	c0.46-0.02,0.93-0.01,1.33-0.01c1.97-1.28,3.67-2.75,5.32-4.28c1.65-1.53,3.3-3.06,5.06-4.46c0.24-0.19,0.44-0.43,0.66-0.66
	c0.81-0.84,1.62-1.68,2.41-2.53c0.26-0.28,0.47-0.61,0.69-0.9c-0.22-0.6-0.87-0.67-1.22-1.08c-0.21-0.25-0.37-0.5-0.28-0.84
	c0.06-0.23,0.16-0.44,0.2-0.67c0.06-0.37-0.25-0.84,0.07-1.12c0.57-0.51,0.95-1.3,1.72-1.53c1.51-0.44,2.75-1.45,4.25-1.89
	c0.37-0.11,0.73-0.27,1.1-0.38c0.76-0.24,1.53-0.25,2.3-0.06c0.45,0.11,0.9,0.23,1.35,0.37c0.14,0.04,0.3,0.14,0.37,0.27
	c0.29,0.55,0.63,1.08,0.64,1.73c0.01,0.47,0.05,0.94,0,1.4c-0.14,1.44,0.12,2.78,0.89,4.02c0.55,0.9,0.69,1.89,0.62,2.92
	c-0.02,0.3-0.1,0.64-0.27,0.87c-0.54,0.68-0.83,1.49-1.23,2.24c-0.16,0.3-0.36,0.48-0.66,0.6c-0.29,0.12-0.58,0.26-0.68,0.59
	c-0.13,0.4-0.34,0.68-0.78,0.76c-0.23,0.04-0.49,0.04-0.67,0.16c-0.61,0.42-1.37,0.19-2.01,0.53c-0.62,0.33-1.18,0.75-1.75,1.13
	c-0.32,0.21-0.71,0.42-1.07,0.43c-0.86,0.02-1.43,0.48-2.01,1.01c-0.63,0.58-1.3,1.11-1.95,1.66c-0.67,0.56-1.43,0.92-2.32,1.01
	c-0.61,0.06-1.22,0.16-1.81,0.24c-0.07,0.64,0.21,1.11,0.43,1.6c0.09,0.21,0.28,0.39,0.15,0.64c-0.34,0.62,0.06,1.22,0.04,1.83
	c-0.01,0.54-0.03,1.1,0.03,1.63c0.18,1.54,0.41,3.08,0.63,4.66c0.27,0.27,0.52,0.56,0.81,0.8c1.78,1.49,2.82,3.48,3.83,5.5
	c0.51,1.02,0.45,2.11,0.43,3.19c-0.41,1-0.45,2.14-1.22,2.99c-0.26,0.29-0.48,0.59-0.63,0.97c-0.31,0.79-0.92,1.4-1.23,2.22
	c-0.5,1.3-1.15,2.55-1.75,3.81c-0.34,0.22-0.64,0.49-1,0.63c-1.06,0.42-1.79,1.21-2.49,2.05c-0.3,0.36-0.57,0.74-0.9,1.06
	c-0.4,0.39-0.75,0.82-0.86,1.36c-0.17,0.88-0.67,1.61-1.19,2.25c-0.68,0.83-1.22,1.79-2.02,2.53c-0.34,0.32-0.66,0.66-0.98,0.99
	c-0.61-0.1-0.99,0.38-1.49,0.57c-0.43,0.16-0.91,0.19-1.36,0.27c-0.08,0.01-0.16-0.01-0.23,0.01c-1.5,0.46-2.92,0.23-4.31-0.52
	c-1.13,0.29-2.19,0.67-3.08,1.51c-0.5,0.47-1.15,0.79-1.72,1.2c-1.13,0.82-2.33,1.53-3.46,2.36c-0.87,0.63-1.76,1.24-2.85,1.56
	c-0.65,0.19-1.27,0.6-1.81,1.03c-0.87,0.69-1.87,1.1-2.87,1.52c-0.2,0.08-0.37,0.23-0.57,0.37c0.19,0.05,0.35,0.15,0.48,0.11
	c2.39-0.67,4.76-1.4,7.06-2.34c2.73-1.12,5.47-2.21,8.23-3.27c2.9-1.12,5.82-2.16,8.79-3.06c1.33-0.4,2.62-0.96,3.94-1.45
	c0.22-0.42,0.41-0.85,0.67-1.23c0.17-0.24,0.44-0.44,0.69-0.6c0.19-0.12,0.43-0.2,0.66-0.05c0.25,0.18,0.5,0.36,0.74,0.56
	c0.4,0.34,0.84,0.35,1.32,0.22c0.07-0.02,0.15-0.05,0.22-0.08c2.16-0.9,4.44-1.38,6.71-1.87c2.81-0.6,5.64-1.15,8.53-1.21
	c1.25-0.03,2.46-0.36,3.67-0.6c1.91-0.38,3.81-0.76,5.76-0.71c0.39,0.01,0.78-0.06,1.17-0.03c1.76,0.11,3.4-0.26,4.92-1.15
	c0.43-0.25,0.9-0.39,1.34-0.27c0.78,0.21,1.52,0.09,2.29-0.02c0.54-0.08,1.08-0.08,1.63-0.09c0.48-0.01,0.92,0.09,1.27,0.47
	c0.27,0.3,0.61,0.48,1.01,0.54c0.99,0.15,1.74,0.76,2.31,1.48c0.73,0.93,1.62,1.67,2.44,2.5c0.46,0.46,0.55,0.95,0.08,1.41
	c-0.37,0.36-0.55,0.71-0.53,1.21c0.01,0.23-0.05,0.46-0.1,0.69c-0.07,0.33-0.62,0.66-0.91,0.54c-0.36-0.14-0.72-0.28-1.07-0.45
	c-0.37-0.18-0.73-0.19-1.12-0.13c-0.77,0.12-1.53,0.29-2.31,0.06c-0.21-0.06-0.47-0.05-0.68,0.01c-0.84,0.23-1.69,0.26-2.55,0.23
	c-0.48-0.01-0.91,0.15-1.36,0.24c-0.52,0.11-1.08,0.05-1.62,0.04c-0.2,0-0.28-0.13-0.25-0.29c0.01-0.07,0.01-0.17,0.06-0.22
	c0.21-0.22,0.41-0.48,0.67-0.63c0.53-0.3,1.17-0.39,1.66-0.94c-0.26-0.06-0.46-0.13-0.65-0.13c-1.09-0.02-2.18,0.01-3.27-0.03
	c-0.93-0.03-1.84-0.06-2.77-0.27c-1.05-0.23-2.17-0.19-3.25-0.2c-2.18-0.02-4.36,0-6.53,0.01c-0.7,0-1.4,0.05-2.1,0.06
	c-0.94,0.01-1.84,0.15-2.76,0.35c-0.9,0.2-1.81,0.43-2.73,0.5c-0.63,0.05-1.22,0.19-1.82,0.37c-0.74,0.22-1.49,0.43-2.25,0.56
	c-0.69,0.12-1.35,0.32-2.03,0.48c-1.07,0.26-2.05,0.68-3.02,1.19c-0.06,0.23-0.14,0.45-0.16,0.68c-0.19,1.62-0.36,3.24-0.54,4.86
	c-0.06,0.46-0.08,0.95-0.25,1.37c-0.27,0.67-0.3,1.33-0.24,2.04c0.05,0.53,0.02,1.11-0.14,1.62c-0.25,0.77-0.24,1.53-0.24,2.31
	c0,1.25-0.02,2.49,0.03,3.74c0.02,0.37,0.19,0.75,0.35,1.1c0.04,0.1,0.26,0.17,0.4,0.18c0.14,0,0.31-0.06,0.43-0.14
	c0.6-0.37,1.18-0.75,1.77-1.12c0.92-0.58,1.85-1.13,2.87-1.53c0.87-0.33,1.68-0.8,2.53-1.2c0.71-0.33,1.42-0.63,2.22-0.64
	c0.65-0.01,1.2-0.27,1.71-0.66c0.43-0.33,0.88-0.64,1.35-0.92c1.31-0.78,1.42-0.78,3.06-0.35c0.38,0.1,0.78,0.14,1.13,0.3
	c1.23,0.56,2.52,0.77,3.85,0.77c0.15,0,0.33-0.01,0.46,0.05c1.28,0.54,2.67,0.83,3.85,1.61c0.19,0.13,0.38,0.28,0.53,0.45
	c1.08,1.26,1.87,2.67,2.2,4.31c0.06,0.29,0.03,0.62-0.01,0.93c-0.19,1.25-0.59,2.43-1.34,3.45c-0.88,1.19-1.58,2.49-2.31,3.77
	c-0.27,0.47-0.55,0.94-0.76,1.44c-0.42,1.01-0.92,1.94-1.86,2.47c0.06,0.19,0.05,0.29,0.1,0.34c1.11,1.07,1.29,2.43,1.24,3.87
	c-0.02,0.51-0.27,0.89-0.71,1.12c-1.66,0.85-3.32,0.87-4.84-0.26c-0.72-0.54-1.53-0.72-2.34-0.97c-0.2-0.06-0.47,0-0.68,0.09
	c-0.28,0.12-0.57,0.28-0.78,0.5c-0.62,0.64-1.24,0.5-1.88,0.07c-0.26-0.17-0.52-0.33-0.81-0.51c-0.15-0.34-0.29-0.71-0.48-1.05
	c-0.71-1.26-0.86-2.63-0.82-4.05c0.03-1.08-0.06-2.16,0.1-3.24c0.06-0.36-0.09-0.77-0.19-1.14c-0.27-1,0.21-1.81,0.65-2.63
	c0.09-0.18,0.36-0.29,0.57-0.37c0.8-0.28,1.22-0.88,1.56-1.62c0.44-0.99,0.98-1.93,1.46-2.9c0.2-0.41,0.35-0.84,0.53-1.27
	c-0.74-0.33-1.43-0.25-2.12-0.08c-1.49,0.35-2.69,1.2-3.74,2.26c-0.54,0.55-1.15,1.03-1.51,1.75c-0.24,0.47-0.69,0.83-0.95,1.12
	c-0.36,0.57-0.19,1.05-0.25,1.51c-0.05,0.39-0.09,0.77-0.19,1.15c-0.17,0.71-0.52,1.3-1.25,1.58c-0.22,0.08-0.43,0.19-0.64,0.29
	c-0.14,0.07-0.27,0.16-0.39,0.23c-0.26,0.33-0.26,0.72-0.34,1.1c-0.07,0.3-0.22,0.57-0.34,0.85c-0.03,0.07-0.1,0.11-0.16,0.17
	c-1.15,1.32-1.15,1.32-1.73,2.78c-0.3,0.15-0.67,0.28-0.98,0.5c-0.76,0.54-1.63,0.48-2.47,0.46c-0.48-0.01-0.95-0.25-1.23-0.6
	c-0.64-0.78-1.55-1.26-2.14-2.09c-0.17-0.23-0.49-0.38-0.77-0.49c-0.21-0.09-0.46-0.05-0.69-0.09c-0.32-0.06-0.64-0.23-0.68-0.55
	c-0.14-0.96-0.66-1.73-1.09-2.55c-0.25-0.48-0.54-0.93-0.94-1.32c-0.44-0.43-0.78-0.96-1.12-1.48c-0.11-0.17-0.15-0.46-0.1-0.67
	c0.12-0.53,0.24-1.08,0.49-1.54c0.6-1.1,0.92-2.31,1.41-3.45c0.15-0.36,0.23-0.77,0.47-1.06c0.69-0.83,0.9-1.77,0.85-2.81
	c-0.02-0.4,0.17-0.76,0.39-1.08c0.52-0.77,1-1.58,1.61-2.27c1.08-1.22,1.51-2.7,1.79-4.23c0.27-1.45,0.41-2.92,0.88-4.33
	c0.12-0.35-0.35-0.75-0.73-0.66c-0.07,0.02-0.16,0.01-0.23,0.04c-2.53,0.97-5.07,1.94-7.6,2.93c-0.65,0.26-1.29,0.55-1.88,0.92
	c-0.93,0.59-1.95,0.97-2.94,1.41c-1.35,0.6-2.7,1.17-4.07,1.71c-1.22,0.49-2.45,0.97-3.7,1.36c-1.03,0.33-1.98,0.87-3.04,1.15
	c-0.58,0.15-1.07,0.61-1.6,0.94c-0.4,0.24-0.76,0.55-1.19,0.72c-1.65,0.68-3.29,1.38-5.06,1.68c-0.53,0.09-1.07,0.2-1.58,0.39
	c-0.6,0.22-1.21,0.27-1.83,0.28c-1.84,0.03-2.02-0.04-3.61-1.29c-0.22,0.4-0.43,0.8-0.66,1.19c-0.32,0.56-0.45,1.16-0.43,1.79
	c0.04,1.4,0.03,2.8,0.26,4.19c0.16,1.01,0.14,2.02,0.14,3.02c0,0.46-0.14,0.91-0.23,1.37c-0.03,0.15-0.08,0.3-0.1,0.45
	c-0.07,0.54,0.46,1,0.18,1.58c-0.26,0.52-0.17,1.1-0.03,1.6c0.22,0.77,0.08,1.54,0.25,2.3c-0.7,1.17-1.24,2.37-1.49,3.68
	c-0.06,0.32-0.28,0.52-0.51,0.75c-0.39,0.38-0.79,0.76-1.07,1.22c-0.35,0.57-0.77,0.93-1.42,1.1c-0.84,0.23-1.48,0.77-2.01,1.47
	c-0.48,0.64-1,0.66-1.55,0.16c-0.76-0.69-1.43-1.49-1.7-2.46c-0.41-1.48-1.21-2.66-2.33-3.66c-0.3-0.26-0.44-0.62-0.64-0.95
	c-0.59-1-1.02-2.11-1.86-2.95c-0.28-0.29-0.44-0.65-0.48-1.04c-0.22-2.17-0.96-4.23-1.25-6.38c-0.05-0.38-0.2-0.75-0.32-1.12
	c-0.09-0.29-0.33-0.6-0.29-0.86c0.16-1.06-0.43-1.96-0.51-2.97c-0.08-0.92-0.44-1.81-0.59-2.72c-0.16-1.04-0.58-1.91-1.4-2.64
	c-0.18,0.06-0.38,0.17-0.59,0.19c-0.22,0.02-0.48,0.02-0.65-0.09c-0.4-0.25-0.75-0.61-0.85-1.07c-0.33-1.43-0.67-2.87-0.54-4.37
	c0.08-0.93,0.13-1.86,0.14-2.79c0.01-0.94,0.16-1.85,0.45-2.75c0.84-2.56,0.77-2.22-0.67-4.5c-0.5-0.79-0.97-1.59-1.41-2.41
	c-0.18-0.33-0.27-0.73-0.36-1.1c-0.18-0.76-0.33-1.52-0.5-2.28c0.22-0.1,0.42-0.25,0.42-0.5c-0.02-1.06-0.07-2.11-0.11-3.17
	c-0.04,0-0.09,0-0.14,0C501.65,268.98,501.61,270.21,501.56,271.44z M511.97,256.17c0.08-0.2,0.17-0.32,0.18-0.45
	c0.02-0.39,0.08-0.8-0.02-1.16c-0.35-1.22-0.26-2.46-0.28-3.69c-0.02-1.39-0.04-2.79-0.08-4.18c-0.04-1.39-0.12-2.77-0.57-4.12
	c-0.21-0.65-0.19-1.37-0.3-2.06c-0.03-0.22-0.12-0.44-0.21-0.65c-0.02-0.04-0.12-0.07-0.18-0.07c-0.07,0-0.19,0.01-0.21,0.05
	c-0.1,0.2-0.22,0.41-0.24,0.63c-0.05,0.59-0.19,1.05-0.9,1.13c-0.29,0.03-0.61,0.15-0.85,0.33c-0.56,0.41-1.1,0.85-1.61,1.34
	c-0.21,0.2-0.31,0.52-0.42,0.8c-0.08,0.21-0.08,0.46-0.1,0.69c-0.1,0.82-0.53,1.45-1.19,1.92c-0.44,0.31-0.91,0.58-1.35,0.89
	c-0.66,0.46-1.08,1.03-1.11,1.91c-0.06,1.47-0.06,2.93,0.01,4.39c0.52,0.09,0.72-0.29,1.03-0.5c0.48-0.32,0.97-0.47,1.51-0.12
	c0.27,0.17,0.56,0.25,0.88,0.22c0.46-0.05,0.92-0.09,1.39-0.11c0.8-0.03,1.51,0.14,2.1,0.78c0.36,0.39,0.85,0.66,1.27,1
	C511.14,255.46,511.55,255.81,511.97,256.17z M516.56,298.91c-0.04-0.73,0.04-1.61-0.18-2.42c-0.31-1.14-0.31-2.29-0.46-3.44
	c-0.47-3.47,0.07-3.1-3.43-2.47c-0.71,0.13-1.27,0.52-1.86,0.89c-0.1,0.06-0.14,0.28-0.13,0.43c0.02,0.22,0.06,0.47,0.18,0.65
	c0.85,1.38,1.12,3.02,2,4.39c0.17,1.37,1.13,2.33,1.81,3.43c0.29,0.47,0.77,0.74,1.3,0.92c0.26,0.09,0.66-0.14,0.67-0.42
	C516.49,300.26,516.52,299.65,516.56,298.91z M513.25,271.67c-0.19-1.86-0.41-4.02-0.64-6.18c-0.02-0.15-0.08-0.29-0.13-0.44
	c-0.07-0.27-0.53-0.4-0.76-0.24c-0.39,0.29-0.65,0.66-0.8,1.11c-0.39,1.19-0.5,2.43-0.73,3.65c-0.08,0.42,0.07,0.81,0.31,1.08
	c0.73,0.8,1.52,1.55,2.29,2.31c0.05,0.05,0.18,0.07,0.22,0.05c0.09-0.09,0.2-0.21,0.22-0.33
	C513.28,272.44,513.25,272.21,513.25,271.67z M535.97,288.9c0.02,0.04,0.03,0.11,0.06,0.13c0.06,0.03,0.15,0.05,0.21,0.03
	c0.2-0.08,0.17-0.17-0.06-0.21C536.12,288.83,536.04,288.88,535.97,288.9z"/>
<path class="st0" d="M220.4,267.9c-0.45-0.02-0.92-0.32-1.33,0.05c-0.7,0.65-1.46,0.8-2.34,0.41c-0.06-0.03-0.17-0.03-0.23,0.01
	c-0.18,0.12-0.39,0.24-0.51,0.41c-0.06,0.08,0.04,0.29,0.11,0.42c0.07,0.13,0.23,0.22,0.29,0.35c0.05,0.12,0.02,0.28-0.01,0.42
	c-0.01,0.07-0.09,0.12-0.15,0.17c-0.59,0.5-1.47,0.58-1.91,1.29c-0.42,0.68-1.2,0.97-1.69,1.58c-0.48,0.59-0.97,1.22-1.86,1.2
	c-0.33-0.69-0.11-1.36,0.01-2.05c0.11-0.61,0.19-1.23,0.22-1.84c0.04-0.81,0.32-1.5,0.83-2.12c0.45-0.54,0.9-1.07,1.32-1.63
	c0.23-0.3,0.49-0.62,0.61-0.98c0.33-0.92,1.02-1.54,1.67-2.21c0.21-0.22,0.54-0.36,0.68-0.61c0.5-0.9,1.22-1.6,1.95-2.3
	c0.61-0.59,1.12-1.29,1.69-1.93c0.52-0.57,1.19-1.06,1.55-1.71c0.43-0.77,1.09-1.31,1.61-1.98c0.48-0.61,1.03-1.17,1.53-1.76
	s0.91-1.28,1.48-1.8c0.94-0.87,1.57-1.93,2.17-3.01c0.35-0.62,0.83-0.85,1.5-0.91c0.51-0.04,0.64-0.24,0.5-0.81
	c-0.09-0.35-0.05-0.62,0.16-0.85c2.24-2.4,3.97-5.18,5.92-7.8c0.74-0.99,1.28-2.14,2.07-3.09c0.56-0.66,0.97-1.38,1.39-2.13
	c0.72-1.28,1.5-2.54,2.27-3.79c0.49-0.79,1.13-1.48,1.53-2.34c0.16-0.34,0.44-0.65,0.73-0.91c0.3-0.27,0.46-0.58,0.57-0.97
	c0.13-0.44,0.35-0.87,0.59-1.26c0.92-1.54,1.87-3.05,2.78-4.59c0.91-1.54,1.88-3.04,3.01-4.43c0.39-0.48,0.79-0.95,1.19-1.43
	c0.2-0.24,0.42-0.46,0.6-0.71c1.03-1.37,2.05-2.73,3.08-4.1c0.31-0.42,0.29-0.62-0.12-0.97c-0.18-0.15-0.38-0.28-0.56-0.43
	c-0.33-0.27-0.43-0.66-0.36-1.05c0.07-0.38,0.28-0.73,0.33-1.1c0.05-0.31,0.02-0.59,0.33-0.79c0.85-0.54,1.65-1.19,2.55-1.63
	c0.91-0.44,1.46-1.13,1.87-1.99c0.1-0.21,0.12-0.45,0.22-0.66c0.21-0.45,0.94-0.78,1.39-0.64c0.37,0.12,0.73,0.25,1.09,0.42
	c0.56,0.26,1.09,0.61,1.67,0.81c0.84,0.29,1.48,0.83,2.08,1.45c1.03,1.07,1.8,2.34,2.56,3.59c0.43,0.71,0.62,1.58,0.85,2.4
	c0.07,0.27,0,0.64-0.14,0.89c-0.31,0.54-0.69,1.04-0.69,1.7c-0.54,0.85-0.76,1.87-1.45,2.65c-0.41,0.46-0.71,1.02-1.04,1.55
	c-0.21,0.33-0.47,0.59-0.8,0.81c-1.15,0.75-1.88,1.81-2.22,3.15c-0.07,0.29-0.22,0.59-0.43,0.81c-0.69,0.75-1.24,1.57-1.78,2.44
	c-0.7,1.12-1.54,2.14-2.31,3.21c-0.24,0.33-0.34,0.69-0.26,1.1c-0.11,0.05-0.22,0.1-0.33,0.15c0.05,0.04,0.09,0.09,0.14,0.13
	c0.05-0.11,0.1-0.21,0.15-0.32c0.3-0.01,0.64,0.05,0.91-0.05c0.72-0.29,1.43-0.62,2.11-1c0.61-0.35,1.33-0.37,1.94-0.78
	c0.74-0.49,5.14-1.83,5.99-1.85c1.18-0.03,2.29-0.44,3.46-0.45c1.56-0.01,3.11,0.04,4.67,0.03c1.48-0.01,2.92,0.31,4.39,0.43
	c2.63,0.22,5.25,0.62,7.87,0.96c0.69,0.09,1.39,0.23,2.06,0.41c0.82,0.23,1.64,0.41,2.48,0.56c0.76,0.14,1.52,0.3,2.28,0.4
	c0.77,0.11,1.53,0.26,2.29,0.41c1.75,0.36,3.5,0.73,5.24,1.1c1.67,0.35,3.34,0.73,5.01,1.08c0.46,0.1,0.92,0.13,1.38,0.2
	c0.31,0.05,0.64,0.03,0.91,0.16c1.7,0.83,3.6,0.96,5.37,1.53c0.96,0.31,1.96,0.46,2.91,0.85c0.74,0.31,1.53,0.36,2.27,0.03
	c0.42-0.18,0.76-0.09,1.08,0.14c0.32,0.22,0.63,0.47,0.88,0.75c0.74,0.8,1.45,1.63,2.16,2.45c0.15,0.18,0.25,0.41,0.42,0.56
	c1.36,1.11,2.18,2.62,3.04,4.1c0.27,0.46,0.59,0.93,0.97,1.3c0.77,0.72,1.23,1.59,1.49,2.59c0.22,0.82,0.5,1.63,0.61,2.46
	c0.09,0.68,0.02,1.39-0.03,2.09c-0.04,0.46-0.21,0.91-0.27,1.37c-0.16,1.18-0.94,1.81-1.99,1.99c-1.07,0.18-2.09,0.6-3.21,0.55
	c-0.6-0.02-1.21,0.25-1.82,0.36c-0.68,0.12-1.36,0.25-2.07,0.08c-0.52-0.12-1.09-0.03-1.63-0.09c-0.21-0.02-0.44-0.16-0.58-0.32
	c-0.54-0.62-1.24-0.92-2.04-1.02c-1.46-0.17-2.91-0.49-4.39-0.49c-0.72,0-1.36-0.31-2.05-0.4c-0.68-0.09-1.16-0.38-1.49-0.98
	c-0.19-0.34-0.4-0.69-0.8-0.81c-0.88-0.27-1.39-0.95-1.86-1.68c-0.21-0.32-0.4-0.66-0.56-0.92c-0.59-0.36-1.16-0.04-1.68-0.2
	c-0.21-0.06-0.42-0.18-0.58-0.33c-0.06-0.06,0.03-0.28,0.05-0.42c0.05-0.43-0.06-0.65-0.37-0.71c-0.3-0.06-0.62-0.08-0.91-0.18
	c-0.26-0.08-0.46-0.03-0.59,0.17c-0.16,0.21-0.37,0.26-0.6,0.3c-0.75,0.16-1.56-0.12-2.29,0.29c-0.1,0.06-0.3,0.01-0.42-0.05
	c-0.74-0.36-1.55,0.01-2.3-0.27c-0.11-0.04-0.31,0.05-0.4,0.14c-0.32,0.31-0.68,0.34-1.08,0.25c-0.3-0.07-0.59-0.22-0.89-0.27
	c-0.3-0.05-0.67-0.12-0.91,0.01c-0.71,0.37-1.51,0.34-2.23,0.61c-0.43,0.16-0.89,0.28-1.35,0.32c-0.87,0.07-1.68,0.3-2.46,0.65
	c-0.36,0.16-0.72,0.3-1.12,0.27c-0.95-0.08-1.84,0.18-2.74,0.45c-1.85,0.56-3.13,0.76-5.25,0.95c-0.23,0.02-0.45,0.1-0.68,0.14
	c-0.19,0.04-0.3,0.14-0.26,0.31c0.03,0.14,0.08,0.32,0.19,0.4c0.24,0.19,0.5,0.39,0.79,0.49c0.73,0.27,1.14,0.81,1.33,1.51
	c0.13,0.45,0.31,0.86,0.55,1.27c0.2,0.33,0.05,0.74-0.33,0.98c-0.27,0.17-0.6,0.28-0.7,0.58c-0.27,0.83-1.11,1.33-1.23,2.22
	c-0.95,1.8-2.47,2.83-4.48,2.88c-1.83,0.04-2.02,0.06-2.08,1.88c-0.01,0.48-0.09,0.97-0.48,1.27c-0.85,0.66-1.29,1.58-1.58,2.53
	c-0.34,1.11-0.93,2.12-1.19,3.27c-0.09,0.43-0.49,0.78-0.68,1.2c-0.12,0.27-0.13,0.6,0.2,0.87c0.7-0.25,1.43-0.52,2.16-0.78
	c3.65-1.31,7.34-2.49,11.1-3.44c0.84-0.21,1.69-0.27,2.54-0.3c0.85-0.04,1.7-0.04,2.53-0.32c0.59-0.2,1.2-0.1,1.82,0.12
	c0.94,0.34,1.95,0.46,2.83,1.01c0.5,0.31,0.82,0.69,0.84,1.3c0.01,0.39,0.07,0.77,0.1,1.16c0.06,0.66-0.15,0.98-0.76,1.27
	c-0.44,0.21-0.92,0.34-1.35,0.18c-1.19-0.45-2.45-0.4-3.66-0.63c-0.63-0.12-1.25-0.12-1.84-0.05c-0.93,0.1-1.86,0.16-2.78,0.16
	c-2.13,0.01-4.17,0.36-6.11,1.27c-0.21,0.1-0.43,0.2-0.66,0.24c-1.69,0.34-3.2,1.18-4.78,1.81c-1.15,0.46-2.21,1.14-3.3,1.73
	c-0.28,0.15-0.43,0.42-0.52,0.73c-0.43,1.5-0.49,3.06-0.75,4.59c-0.1,0.61-0.11,1.27,0.03,1.86c0.29,1.23,0.24,2.47,0.27,3.72
	c0.01,0.39,0.06,0.78,0.1,1.16c0.02,0.23,0.3,0.42,0.49,0.33c0.64-0.28,1.3-0.52,1.91-0.86c1.61-0.92,3.2-1.9,4.86-2.76
	c-0.5-0.86-0.12-1.72-0.18-2.56c-0.01-0.17,0.29-0.47,0.45-0.47c0.78,0.02,1.55-0.02,2.31-0.19c0.14-0.03,0.31-0.01,0.46,0.04
	c0.84,0.29,1.68,0.18,2.53,0.07c0.61-0.08,1.24-0.03,1.86-0.06c0.32-0.01,0.62,0.02,0.9,0.19c0.48,0.29,1.01,0.43,1.55,0.5
	c1.18,0.16,1.9,0.99,2.62,1.79c0.14,0.16,0.16,0.43,0.21,0.65c0.06,0.3,0.08,0.61,0.16,0.91c0.06,0.22,0.2,0.41,0.3,0.6
	c0.02,0.36-0.24,0.57-0.38,0.84c-0.28,0.51-0.69,0.85-1.24,0.99c-0.61,0.15-1.17,0.37-1.71,0.7c-0.57,0.34-0.96,0.81-1.15,1.41
	c-0.21,0.67-0.35,1.35-0.89,1.87c-0.05,0.05-0.1,0.13-0.11,0.21c-0.15,1.78-1.41,3.08-2.02,4.66c-0.25,0.64-0.72,1.2-1.04,1.81
	c-0.44,0.82-0.78,1.69-1.55,2.29c-0.17,0.13-0.28,0.37-0.37,0.59c-0.33,0.81-0.88,1.46-1.52,2.04c-0.06,0.05-0.11,0.11-0.17,0.16
	c-0.55,0.43-0.35,1.18-0.74,1.68c-0.37,0.48-0.96,0.75-1.13,1.44c-0.15,0.59-0.48,1.15-0.81,1.67c-0.89,1.39-1.53,2.88-1.89,4.49
	c-0.2,0.9-0.56,1.75-0.56,2.72c0,0.84-0.32,1.67-0.94,2.33c-0.05,0.05-0.12,0.14-0.12,0.2c0.02,0.14,0.06,0.29,0.14,0.39
	c0.09,0.11,0.26,0.25,0.38,0.23c0.91-0.13,1.82-0.3,2.74-0.45c0.54-0.09,1.08-0.17,1.62-0.22c1.08-0.1,2.17-0.1,3.24-0.36
	c0.45-0.11,0.93-0.12,1.39-0.13c2.18-0.04,4.36-0.09,6.54-0.08c0.85,0.01,1.7,0.17,2.55,0.27c0.38,0.05,0.76,0.21,1.14,0.2
	c1.92-0.06,3.41,0.9,4.86,1.97c0.62,0.46,1.25,0.92,1.85,1.42c0.3,0.24,0.53,0.57,0.81,0.88c0.01,0.38,0.04,0.77,0.02,1.15
	c-0.02,0.48,0.07,0.94,0.31,1.35c0.32,0.56,0.22,1.03-0.22,1.47c-0.23,0.23-0.35,0.48-0.3,0.83c0.03,0.22,0,0.47-0.06,0.68
	c-0.14,0.49-0.5,0.8-0.98,0.91c-0.37,0.08-0.77,0.11-1.15,0.08c-0.73-0.05-1.37,0.37-2.05,0.38c-0.68,0.01-1.36-0.25-2.05-0.34
	c-1.12-0.16-2.14,0.15-3.06,0.79c-0.31-0.54-0.67-0.88-1.3-0.88c-0.48,0-0.94,0.04-1.36,0.25c-0.83,0.42-1.62,0.45-2.43-0.07
	c-0.25-0.16-0.64-0.12-0.88,0.09c-0.15,0.13-0.18,0.4-0.26,0.61c-0.77,0.37-1.54,0.73-2.4,0.83c-0.49,0.06-0.86,0.32-1.18,0.68
	c-0.23,0.26-0.51,0.27-0.84,0.13c-0.43-0.18-0.74-0.03-0.91,0.42c-0.03,0.07-0.09,0.19-0.11,0.19c-0.78-0.14-1.31,0.35-1.89,0.73
	c-0.19,0.12-0.43,0.2-0.65,0.23c-0.77,0.11-1.54,0.24-2.32,0.26c-1.24,0.04-2.49,0.02-3.74,0c-0.78-0.01-1.54-0.01-2.29,0.27
	c-0.6,0.23-1.23,0.1-1.79-0.27c-0.26-0.17-0.54-0.31-0.8-0.49c-0.4-0.27-0.69-0.63-0.77-1.12c-0.1-0.63-0.32-1.18-0.65-1.73
	c-1.11-1.88-1.79-3.96-2.48-6.02c-0.12-0.36-0.19-0.77-0.15-1.15c0.13-1.27-0.15-2.47-0.6-3.63c-0.06-0.14-0.13-0.3-0.13-0.45
	c0-0.38-0.02-0.78,0.06-1.15c0.08-0.38,0.21-0.76,0.41-1.09c0.86-1.38,1.49-2.89,2.72-4.03c0.97-0.9,1.5-2.15,2.19-3.19
	c-0.35-1.29-0.67-2.48-0.99-3.68c-0.06-0.22-0.35-0.38-0.54-0.26c-0.87,0.54-1.95,0.51-2.82,1.03c-0.8,0.09-1.47,0.49-2.12,0.91
	c-0.28,0.19-0.56,0.23-0.87,0.06c-0.22-0.12-0.47-0.16-0.63,0.03c-0.45,0.54-0.98,0.7-1.65,0.49c-0.59,0.19-1.17,0.39-1.8,0.59
	c-0.09-0.28-0.17-0.49-0.23-0.7c-0.08-0.32-0.23-0.57-0.59-0.62c-0.23-0.03-0.46-0.05-0.69-0.09c-0.49-0.07-0.9-0.32-1.13-0.75
	c-0.79-1.52-2.15-2.43-3.54-3.28c-0.5-0.31-0.85-0.65-1.03-1.18c-0.1-0.29-0.21-0.58-0.32-0.88c-0.25-0.67-0.59-1.28-1.17-1.71
	c-0.78-0.57-1.17-1.45-1.68-2.21c-0.23-0.34-0.18-0.76,0.02-1.11c0.11-0.2,0.3-0.39,0.21-0.62c-0.21-0.56-0.12-1.07,0.15-1.57
	c0.44-0.82,0.64-1.74,1.19-2.52c0.3-0.42,0.34-1.02,0.48-1.54c0.1-0.37-0.08-0.54-0.44-0.49c-0.54,0.08-1.08,0.19-1.62,0.19
	c-0.7,0.01-1.4-0.08-2.06,0.27c-0.19,0.1-0.46,0.1-0.69,0.08c-0.99-0.11-1.99-0.12-2.97-0.39c-0.61-0.17-1.18-0.38-1.7-0.74
	c-0.51-0.35-1.01-0.73-1.51-1.1c-0.39-0.29-0.63-0.68-0.64-1.18c0-0.23,0.04-0.48-0.02-0.7c-0.39-1.25-0.24-2.46,0.21-3.65
	c0.08-0.22,0.13-0.45,0.2-0.69c0.79-0.8,1.73-1.26,2.89-1.27c0.3,0,0.6-0.15,0.88-0.27c1.08-0.46,1.23-0.05,1.66,0.64
	c0.31,0.49,0.39,1.01,0.39,1.56c0,0.46-0.01,0.92,0.03,1.38c0.01,0.11,0.19,0.27,0.32,0.3c0.22,0.06,0.49,0.12,0.69,0.05
	c1.46-0.55,3.01-0.7,4.49-1.16c1.04-0.33,2.09-0.59,3.1-0.99c2.38-0.95,4.78-1.86,7.08-3c0.48-0.24,0.91-0.6,1.39-0.84
	c3.21-1.56,6.43-3.13,9.86-4.18c0.59-0.18,1.15-0.46,1.71-0.73c0.36-0.17,0.62-0.45,0.68-0.88c0.18-1.31,0.34-2.62,0.55-3.92
	c0.22-1.3,0.48-2.59,0.75-3.89c0.15-0.69,0.18-1.39,0.14-2.09c-0.03-0.4-0.27-0.65-0.75-0.72c-0.15-0.02-0.31-0.02-0.47-0.03
	c-0.33-0.02-0.58-0.16-0.75-0.45c-0.17-0.28-0.44-0.42-0.77-0.44c-0.39-0.02-0.78-0.05-1.13,0.18c-0.32,0.21-0.64,0.42-0.95,0.62
	c-0.36-0.25-0.68-0.46-1-0.67c-0.11,0.15-0.21,0.27-0.28,0.4c-0.18,0.32-0.43,0.44-0.77,0.26c-0.32-0.17-0.58-0.15-0.77,0.18
	c-0.11,0.2-0.16,0.44-0.29,0.63c-0.07,0.1-0.26,0.17-0.39,0.16c-0.9-0.08-0.91-0.09-1.07,0.08c-0.32,0.33-0.56,0.82-0.95,0.99
	c-1.16,0.51-2,1.46-3.09,2.06c-0.13,0.08-0.26,0.17-0.4,0.23c-1.29,0.63-2.49,0.18-3.01-1.19c-0.41-1.1-0.52-2.21-0.11-3.41
	c0.55-1.61,0.94-3.29,1.34-4.95c0.16-0.67,0.21-1.38,0.05-2.07c-0.08-0.34,0.15-0.35,0.36-0.41c0.22-0.06,0.51-0.08,0.56-0.34
	c0.12-0.65,0.71-1,0.81-1.57c0.49-0.11,0.88-0.16,1.24-0.28c0.74-0.24,1.47-0.52,2-1.14c0.52-0.6,1.15-1,1.96-1.15
	c0.45-0.08,0.85-0.39,1.29-0.54c0.36-0.13,0.75-0.27,1.12-0.24c1.2,0.08,2.31-0.18,3.23-0.69c0.83,0.13,1.51,0.29,2.2,0.33
	c0.7,0.04,1.41-0.1,2.1-0.03c0.73,0.08,1.36-0.24,2.05-0.38c1.05,0.7,2.22,1.08,3.46,1.27c0.69,0.1,1.38,0.37,2.06,0.34
	c0.68-0.03,1.35-0.32,2.02-0.52c3.42-1.01,6.81-2.09,10.16-3.31c0.87-0.32,1.74-0.66,2.68-0.75c0.46-0.04,0.94-0.16,1.33-0.39
	c0.89-0.52,1.92-0.53,2.85-0.92c1.79-0.75,3.65-1.32,5.43-2.09c0.35-0.15,0.75-0.22,1.12-0.31c1.06-0.25,2.06-0.66,3.22-1.27
	c-1.14-0.01-2.04-0.16-2.88-0.58c-0.4-0.2-0.54-0.5-0.53-0.93c0-0.26-0.29-0.43-0.44-0.29c-0.22,0.21-0.41,0.45-0.65,0.65
	c-0.1,0.08-0.3,0.13-0.43,0.09c-0.29-0.09-0.58-0.22-0.86-0.35c-0.63-0.3-1.23-0.67-1.97-0.6c-1.47-0.47-2.96-0.88-4.35-1.57
	c-0.27-0.13-0.57-0.31-0.86-0.31c-0.64,0.01-1.21-0.23-1.8-0.42c-1.26-0.4-2.59-0.49-3.84-0.92c-0.96,0.07-1.79-0.51-2.72-0.59
	c-0.15-0.01-0.3-0.1-0.43-0.17c-0.76-0.38-1.54,0.38-2.28-0.01c-0.71-0.38-1.44-0.52-2.24-0.36c-0.47,0.09-0.96-0.01-1.34-0.29
	c-0.41-0.31-0.84-0.37-1.31-0.29c-0.46,0.08-0.9,0.14-1.37-0.05c-0.94-0.39-1.92-0.61-2.95-0.6c-0.38,0-0.77-0.09-1.14-0.19
	c-1.07-0.29-2.15-0.25-3.24-0.14c-0.62,0.06-1.22,0.21-1.8,0.44c-1.01,0.39-1.95,1-3.1,0.91c-0.14-0.01-0.28,0.11-0.43,0.16
	c-0.81,0.27-1.48,0.89-2.27,1.09c-0.78,0.2-1.45,0.54-2.11,0.93c-0.62,0.37-1.31,0.49-2,0.58c-0.62,0.08-1.22,0.17-1.83,0.34
	c-0.59,0.17-1.21,0.22-1.8,0.32c-0.14,0.26-0.27,0.46-0.34,0.67c-0.15,0.46-0.33,0.83-0.8,1.07c-0.32,0.17-0.51,0.57-0.81,0.82
	c-0.26,0.22-0.43,0.47-0.43,0.79c-0.02,0.92-0.7,1.54-1.03,2.32c-0.55,0.44-0.79,1.16-1.42,1.52l0.05,0.07
	c-0.13-0.33-0.38-0.39-0.68-0.26c-0.13,0.06-0.23,0.17-0.34,0.25l0.06-0.05c-0.63,0.29-0.84,0.86-0.99,1.47l0.04-0.06
	c-0.62,0.18-0.92,0.72-1.21,1.22c-0.43-0.14-0.81-0.25-1.09,0.15c-0.09,0.12-0.16,0.26-0.24,0.39c-0.31,0.49-0.69,0.79-1.33,0.67
	c-0.19-0.04-0.44,0.09-0.63,0.21c-0.19,0.11-0.38,0.28-0.33,0.55c0.07,0.42-0.08,0.88,0.3,1.25c0.09,0.09-0.06,0.29-0.24,0.3
	c-0.23,0.01-0.46-0.04-0.68-0.02c-0.65,0.06-1.05,0.57-0.99,1.25c0.06,0.71,0.06,0.71-0.64,0.94c-0.07,0.02-0.15,0.03-0.22,0.06
	c-0.07,0.03-0.14,0.07-0.2,0.1c0.08-0.36-0.06-0.77,0.26-1.08c0.1-0.1,0.15-0.26,0.2-0.4c0.1-0.28-0.11-0.57-0.44-0.62
	c-0.29-0.04-0.58-0.09-0.86-0.13c-0.78,0.54-1.13,1.49-1.97,1.94c0,0,0.03,0.11,0.06,0.12c0.07,0.03,0.15,0.05,0.21,0.04
	c0.15-0.03,0.32-0.04,0.44-0.13c0.5-0.38,0.99-0.32,1.5-0.02c0.19,0.11,0.43,0.16,0.64,0.24c-0.11,0.1-0.2,0.27-0.33,0.29
	c-0.53,0.1-1.07,0.14-1.61,0.23c-0.47,0.08-0.88,0.33-1.17,0.7c-0.47,0.6-0.9,1.23-1.34,1.85c-0.04,0.05-0.05,0.16-0.02,0.23
	c0.07,0.18,0.2,0.18,0.37,0.16c0.62-0.07,1.01-0.76,1.7-0.64c0.07,0.01,0.14,0.07,0.18,0.12c0.03,0.04,0.05,0.14,0.03,0.17
	c-0.26,0.28-0.54,0.54-0.8,0.83c-0.3,0.33-0.49,0.8-1.05,0.8c-0.48,0-0.91-0.06-1.27-0.43c-0.05-0.06-0.29,0.01-0.41,0.08
	c-0.13,0.06-0.09,0.21,0.02,0.37c0.09,0.13,0.13,0.28,0.21,0.41c0.14,0.21,0.35,0.31,0.58,0.22c0.46-0.19,0.72,0.04,0.96,0.38
	c0.14,0.21,0.09,0.44-0.14,0.55c-0.2,0.1-0.51,0.13-0.59,0.28c-0.38,0.69-0.91,1.22-1.53,1.7c-0.23,0.18-0.37,0.49-0.55,0.74
	c-0.15,0.21-0.13,0.41-0.05,0.65c0.25,0.74,0.24,0.75-0.26,1.13c-0.31,0.23-0.6,0.5-0.93,0.69c-0.33,0.19-0.7,0.29-1.03,0.42
	c-0.09,0.31-0.23,0.61-0.24,0.9c-0.02,0.52-0.24,0.86-0.69,1.1c-0.21,0.11-0.29,0.31-0.15,0.57c0.06,0.11,0.13,0.32,0.07,0.39
	c-1.03,1.43-2,2.9-3.3,4.12c-0.32,0.3-0.64,0.33-1.04,0.26c-0.33-0.06-0.54,0.1-0.73,0.41c-0.32,0.52-0.38,0.53-0.89,0.22
	c-0.42-0.26-0.85-0.34-1.32-0.28l0.05,0.06c-0.01-0.14,0-0.29-0.04-0.42c-0.09-0.29-0.22-0.33-0.43-0.21
	c-0.25,0.15-0.47,0.31-0.53,0.62L220.4,267.9z M254.51,291.77c0.4,0.09,0.78,0.03,1.1-0.22c0.8-0.61,1.63-1.17,2.54-1.62
	c0.97-0.48,1.9-1.04,2.85-1.54c0.89-0.47,1.8-0.9,2.7-1.36c0.36-0.18,0.66-0.46,0.69-0.87c0.15-1.7,0.48-3.38,0.45-5.09
	c-0.01-0.54-0.04-1.11,0.11-1.62c0.48-1.65,0.24-3.4,0.68-5.05c0.04-0.15-0.31-0.44-0.47-0.41c-0.15,0.02-0.33-0.01-0.45,0.07
	c-1.18,0.73-2.48,1.24-3.61,2.09c-1.11,0.83-2.31,1.54-3.5,2.27c-0.32,0.2-0.72,0.28-1.06,0.45c-0.69,0.34-1.37,0.69-2.04,1.07
	c-0.08,0.04-0.12,0.32-0.05,0.39c0.15,0.16,0.35,0.31,0.56,0.39c0.74,0.26,1.09,0.86,1.29,1.54c0.18,0.6,0.19,1.23-0.15,1.8
	c-0.07,0.12-0.23,0.25-0.36,0.26c-0.22,0.01-0.45-0.08-0.67-0.13c-0.27-0.06-0.48,0.05-0.47,0.27c0.02,0.46-0.02,0.95,0.1,1.38
	c0.49,1.78,0.39,3.53-0.2,5.26c-0.07,0.21-0.03,0.46-0.04,0.69c-0.23,0.01-0.52,0.02-0.19,0.31
	C254.42,292.17,254.57,291.95,254.51,291.77z M266.74,296.45c-0.03,0.47-0.08,1.01-0.1,1.55c-0.01,0.15,0.07,0.29,0.1,0.44
	c0.03,0.18,0.39,0.33,0.55,0.22c0.13-0.09,0.28-0.15,0.37-0.26c0.52-0.66,0.85-1.48,1.7-1.85c0.18-0.08,0.32-0.33,0.43-0.53
	c0.84-1.56,1.68-3.12,2.72-4.56c0.09-0.12,0.18-0.26,0.21-0.41c0.36-1.61,1.28-2.97,1.95-4.45c0.48-1.06,0.93-2.13,1.2-3.26
	c0.03-0.11-0.08-0.27-0.16-0.39c-0.02-0.04-0.14-0.06-0.2-0.04c-0.93,0.36-1.92,0.63-2.71,1.26c-1.03,0.82-2.17,1.48-3.23,2.25
	c-0.44,0.32-0.87,0.65-1.24,1.04c-0.77,0.81-1.26,1.75-1.23,2.91c0.01,0.7,0.08,1.42-0.06,2.09
	C266.76,293.77,266.68,295.07,266.74,296.45z M262.88,299.85c-0.07,0.01-0.18-0.01-0.21,0.03c-0.19,0.23-0.27,0.5-0.19,0.81
	c0.02,0.07,0.08,0.18,0.11,0.18c0.12-0.02,0.29-0.04,0.33-0.12c0.1-0.19,0.17-0.41,0.19-0.62
	C263.12,300.04,262.96,299.94,262.88,299.85z M241.41,291.66c0.07,0.12,0.14,0.25,0.21,0.37c0.08-0.12,0.19-0.23,0.24-0.36
	c0.04-0.13,0.04-0.29,0.03-0.44c-0.01-0.06-0.1-0.17-0.12-0.16c-0.11,0.03-0.24,0.08-0.28,0.16
	C241.42,291.35,241.43,291.51,241.41,291.66z M229.09,259.16l-0.08,0.13l0.12,0.01L229.09,259.16z"/>
<path class="st0" d="M471.58,317.52c-0.04,0.13-0.06,0.38-0.18,0.57c-0.55,0.91-1.21,1.75-1.62,2.75c-0.01,0.03-0.34,0.02-0.38-0.05
	c-0.25-0.49-0.64-0.69-1.14-0.49c-0.51,0.21-1.03,0.32-1.58,0.32c-0.93,0-1.86,0.03-2.79,0.07c-2.29,0.1-3.65-0.19-5.55-1.13
	c-0.83-0.41-1.68-0.79-2.64-0.78c-0.46,0-0.92-0.13-1.39-0.14c-0.72-0.01-1.39-0.1-1.98-0.54c-0.23-0.17-2.52-1.78-2.72-1.98
	c-0.49-0.51-0.75-0.86-0.82-1.25c-0.17-0.99-0.76-1.88-0.66-2.93c0.02-0.2-0.12-0.44-0.24-0.62c-0.22-0.32-0.56-0.57-0.7-0.91
	c-0.25-0.6-0.64-1.03-1.15-1.42c-0.38-0.29-0.58-0.72-0.58-1.22c0-0.47-0.01-0.93-0.02-1.4c-0.02-0.79-0.11-1.54-0.55-2.23
	c-0.16-0.26-0.32-0.58-0.31-0.87c0.06-1.04-0.54-1.94-0.6-2.94c-0.05-0.74-0.54-1.28-0.82-1.91c-0.09-0.2-0.3-0.35-0.48-0.5
	c-0.95-0.82-0.96-0.83-0.3-1.84c0.13-0.2,0.21-0.4,0.09-0.65c-0.1-0.21-0.18-0.43-0.24-0.65c-0.12-0.44,0.11-0.77,0.43-1
	c0.24-0.18,0.55-0.34,0.83-0.35c0.54-0.03,0.82-0.31,1.05-0.75c0.09-0.18,0.33-0.31,0.53-0.42c0.13-0.07,0.32-0.15,0.44-0.1
	c0.79,0.31,1.63,0.49,2.24,1.15c0.81,0.85,1.81,1.45,2.77,2.1c1.02,0.7,2.01,1.46,3.01,2.2c0.45,0.34,0.77,0.75,0.83,1.34
	c0.06,0.58,0.66,0.9,0.78,1.4c0.29,1.25,1.13,2,2.1,2.67c0.83,0.58,1.59,1.24,2.2,2.06c0.51,0.69,1.19,1.21,1.83,1.76
	c0.29,0.25,0.61,0.48,0.95,0.65c2.11,1.01,4.06,2.26,5.95,3.62c0.97,0.7,1.55,1.71,2.34,2.56
	C470.61,314.98,471.51,316.09,471.58,317.52z"/>
<path class="st0" d="M550.48,232.98c-0.29,0.4-0.55,0.79-0.84,1.15c-0.25,0.29-0.6,0.51-0.82,0.82c-0.27,0.37-0.53,0.77-0.51,1.27
	c0.01,0.39,0.03,0.78-0.03,1.16c-0.1,0.63-0.52,1.31-1.38,1.33c-0.87,0.02-1.71-0.05-2.51-0.39c-0.5-0.21-0.99-0.46-1.48-0.68
	c-0.58-0.26-0.97-0.77-1.47-1.13c-0.44-0.31-0.97-0.49-1.43-0.77c-0.26-0.16-0.48-0.39-0.7-0.61c-0.38-0.39-0.73-0.8-1.12-1.19
	c-0.89-0.91-1.55-1.93-1.63-3.25c-0.02-0.3-0.15-0.6-0.27-0.88c-0.16-0.38-0.15-0.74-0.02-1.13c0.15-0.44,0.24-0.91,0.41-1.33
	c0.3-0.73,0.69-1.4,1.5-1.69c0.63-0.22,0.98-0.73,1.35-1.23c0.38-0.52,0.93-0.81,1.57-0.9c0.54-0.08,1.09-0.09,1.61-0.22
	c1.02-0.24,1.65,0.34,2.14,1.05c0.39,0.57,0.71,1.22,0.92,1.88c0.24,0.74,0.18,1.53,0,2.3c-0.22,0.98-0.46,1.96-0.68,2.94
	c-0.03,0.15-0.02,0.31-0.04,0.46c-0.02,0.27,0.29,0.65,0.55,0.65c0.46-0.02,0.93-0.02,1.38-0.1c0.3-0.05,0.57-0.23,0.87-0.31
	c0.51-0.13,0.97-0.69,1.52-0.33C549.8,232.11,550.09,232.57,550.48,232.98z"/>
<path class="st0" d="M247.97,239.87c-0.22,0.46-0.4,0.94-0.67,1.37c-0.35,0.57-0.58,0.56-1.19,0.04l-0.04,0.06
	c0.66-0.27,1.06-0.72,0.99-1.47l-0.06,0.05c0.34,0,0.68,0.01,1.02,0.01L247.97,239.87z"/>
<path class="st0" d="M369.52,270.07c0.02,0.06,0.07,0.12,0.06,0.18c-0.04,0.19-0.14,0.21-0.23,0.05c-0.02-0.04,0.01-0.13,0.04-0.18
	C369.41,270.08,369.48,270.08,369.52,270.07z"/>
<path class="st0" d="M384.03,276.4c-0.1,0.07-0.19,0.18-0.3,0.19c-0.08,0.01-0.16-0.13-0.25-0.2c0.13-0.05,0.26-0.11,0.39-0.13
	C383.92,276.24,383.98,276.34,384.03,276.4z"/>
<path class="st0" d="M244.23,243.64c0.02,0.17-0.17,0.37-0.2,0.33c-0.23-0.33,0-0.33,0.25-0.28L244.23,243.64z"/>
<path class="st0" d="M244.28,243.69c-0.06-0.19-0.02-0.29,0.15-0.28c0,0,0.02,0.12,0,0.14c-0.05,0.05-0.13,0.07-0.2,0.09
	L244.28,243.69z"/>
<polygon class="st0" points="367.81,295.38 367.95,295.5 367.86,295.34 "/>
<path class="st0" d="M374.32,357.27c-0.84,0.23-1.68,0.55-2.6,0.52c-0.43-0.01-0.87,0.16-1.3,0.26c-0.26,0.06-0.52,0.2-0.78,0.19
	c-1.27-0.02-2.48,0.26-3.68,0.62c-0.43,0.13-0.9,0.03-1.27-0.27c-0.13-0.11-0.25-0.29-0.27-0.45c-0.01-0.11,0.17-0.33,0.28-0.33
	c1.01-0.07,1.88-0.52,2.77-0.96c0.15-0.59,0.02-1.2,0.21-1.81c0.22-0.72-0.03-0.98-0.74-1.07c-0.35-0.04-0.73-0.04-1.06-0.16
	c-0.22-0.08-0.39-0.33-0.63-0.56c0.61-0.29,1.16-0.53,1.68-0.83c0.66-0.38,0.82-0.88,0.58-1.58c-0.11-0.34-0.23-0.68-0.34-1.02
	c-0.15-0.46-0.45-0.73-0.92-0.87c-0.42-0.13-0.8-0.36-1.2-0.56c-0.03-0.02-0.02-0.13-0.04-0.27c0.47-0.19,0.95-0.44,1.46-0.58
	c0.45-0.12,0.83-0.3,1.15-0.64c0.12-0.13,0.27-0.25,0.43-0.32c2.29-0.91,4.55-0.88,6.74,0.3c0.88,0.47,1.56,1.21,2.23,1.92
	c0.22,0.23,0.31,0.66,0.31,1c-0.01,1.16,0.06,2.36-0.17,3.48c-0.23,1.11-0.18,2.12,0.2,3.15c0.18,2.14,0.72,4.24,0.57,6.41
	c-0.03,0.44-0.01,0.9,0.05,1.34c0.28,2.31,0.23,4.63,0.18,6.96c-0.01,0.53,0.11,1.06,0.17,1.6c0.23,1.9,0.06,3.75-0.59,5.55
	c-0.08,0.24-0.41,0.32-0.68,0.14c-0.73-0.49-1.58-0.85-2.04-1.69c-0.23-0.41-0.67-0.56-1.06-0.78c-0.4-0.22-0.68-0.59-0.81-1.03
	c-0.04-0.15-0.02-0.38,0.08-0.49c0.17-0.19,0.39-0.37,0.63-0.45c0.93-0.34,1.4-0.87,1.45-1.97c0.1-1.97,0.23-3.93,0.01-5.9
	c-0.1-0.89-0.04-1.79-0.06-2.69c-0.04-1.61-0.08-3.23-0.13-4.84C375.1,358.13,375.01,358.01,374.32,357.27z M374.01,351.52
	c-1.25,0.3-2.28,0.94-3.28,1.65c-0.07,0.05-0.12,0.14-0.15,0.22c-0.25,0.61-0.21,1.21,0.05,1.8c0.06,0.14,0.25,0.3,0.39,0.32
	c1.16,0.15,2.14,0.8,3.25,1.08c0.09,0.02,0.31-0.17,0.33-0.29c0.05-0.25,0.08-0.54,0-0.78c-0.35-1.02-0.47-2.07-0.45-3.14
	C374.17,352.12,374.07,351.86,374.01,351.52z M368.93,348.77c0.26,0.48,0.43,0.9,0.69,1.25c0.2,0.28,0.46,0.53,0.89,0.37
	c0.6-0.22,1.22-0.21,1.83-0.02c0.34,0.11,0.69,0.19,1.04,0.21c0.12,0.01,0.35-0.21,0.35-0.34c0.04-0.62,0.05-1.24,0.02-1.85
	c-0.02-0.47-0.52-0.83-0.92-0.7C371.58,348.12,370.36,348.6,368.93,348.77z"/>
<path class="st0" d="M482.17,361.25c0.04-0.15,0.04-0.35,0.13-0.45c1.06-1.05,2.34-1.54,3.82-1.47c0.5,0.02,0.99,0.05,1.49,0.1
	c0.44,0.04,0.76,0.28,1.01,0.64c0.19,0.28,0.31,0.58,0.26,0.93c-0.13,0.9-0.68,1.7-0.69,2.63c-0.01,0.83-0.01,1.66-0.03,2.49
	c-0.01,0.33-0.05,0.67-0.13,0.98c-0.11,0.41-0.06,0.79-0.03,1.21c0.09,1.25,0.48,2.43,0.66,3.66c0.18,1.23,0.63,2.4,0.95,3.59
	c0.26,0.97,0.43,1.94,0.43,2.94c0,0.23-0.14,0.47-0.24,0.69c-0.1,0.24-0.41,0.4-0.59,0.34c-0.56-0.18-1.11-0.38-1.54-0.78
	c-0.9-0.85-1.68-1.82-2.33-2.89c-0.11-0.18-0.09-0.52,0-0.71c0.15-0.28,0.41-0.05,0.62,0.01c0.54,0.16,0.81-0.01,0.72-0.5
	c-0.23-1.21-0.49-2.42-0.76-3.62c-0.02-0.11-0.27-0.26-0.38-0.23c-0.31,0.07-0.61,0.23-0.92,0.33c-0.47,0.16-0.94,0.41-1.42,0.42
	c-0.47,0-0.94-0.26-1.41-0.4c-0.28-0.08-0.5,0.05-0.52,0.31c-0.02,0.33-0.05,0.67-0.03,0.99c0.09,1.12-0.26,2.16-0.78,3.09
	c-0.47,0.85-1.15,1.62-2.25,1.8c-0.2,0.03-0.33,0.01-0.42-0.18c-0.03-0.07-0.08-0.17-0.06-0.23c0.39-1.26,0.84-2.5,1.09-3.81
	c0.14-0.74,0.24-1.47,0.25-2.22c0.02-2.74,0.15-5.46,0.43-8.18c0.03-0.32-0.07-0.65-0.1-0.98c-0.03-0.27,0.14-0.51,0.35-0.51
	c0.83-0.02,1.65-0.03,2.48-0.04c-0.47,0.54-0.58,1.15-0.45,1.85c0.08,0.38,0.26,0.63,0.57,0.7c0.64,0.13,1.28,0.28,1.92,0.4
	c0.16,0.03,0.34,0.04,0.49-0.01c0.14-0.05,0.32-0.16,0.37-0.28c0.24-0.63,0.15-1.29,0.1-1.95c-0.03-0.32-0.32-0.63-0.62-0.63
	C483.81,361.26,482.99,361.26,482.17,361.25z M481.73,367.14c-0.01,0-0.03,0-0.04,0c0,0.08,0,0.17-0.01,0.25
	c-0.2,1.22,0.22,1.4,1.26,1.74c0.73,0.24,1.47,0.03,2.15-0.33c0.27-0.14,0.34-0.62,0.16-1.14c-0.08-0.24-0.3-0.36-0.59-0.31
	c-0.08,0.01-0.16,0.05-0.24,0.06c-0.76,0.14-0.86,0.09-0.89-0.66c-0.01-0.38-0.14-0.64-0.42-0.83c-0.2-0.14-0.45-0.22-0.67-0.32
	c-0.43-0.19-0.69-0.08-0.71,0.29C481.72,366.31,481.73,366.72,481.73,367.14z"/>
<path class="st0" d="M433.01,366.53c-0.13,1.14-0.3,2.11-0.25,3.11c0.01,0.14,0.36,0.46,0.51,0.46c0.25,0,0.5-0.04,0.74,0
	c0.76,0.13,1.36-0.72,2.15-0.35c0.72,0.33,1.48,0.11,2.21,0.19c0.78,0.08,1.43,0.39,1.96,0.95c0.24,0.25,0.31,0.57,0.31,0.91
	c-0.01,0.33-0.29,0.67-0.6,0.67c-0.65,0-1.29-0.07-1.96,0.07c-0.8,0.16-1.63,0.02-2.45-0.23c-1.2-0.36-2.43-0.49-3.64,0
	c-0.32,0.13-0.65,0.1-0.97-0.02c-0.07-0.03-0.17-0.07-0.24-0.05c-0.56,0.11-1.12,0.29-1.68,0.35c-0.57,0.06-1.15,0.02-1.73,0.02
	c-0.17,0-0.46,0.34-0.44,0.52c0.04,0.49,0.11,0.99,0.13,1.48c0.01,0.24-0.05,0.49-0.08,0.73c-0.03,0.17-0.42,0.4-0.59,0.33
	c-0.23-0.09-0.45-0.21-0.68-0.29c-0.34-0.11-0.58-0.35-0.69-0.66c-0.25-0.7-0.48-1.4-0.68-2.11c-0.07-0.23-0.1-0.52-0.01-0.73
	c0.49-1.19,0.34-2.45,0.39-3.68c0.04-1.07,0.01-2.15,0.01-3.23c0-1.33,0.01-2.64-0.36-3.95c-0.17-0.62-0.1-1.31-0.1-1.97
	c0-0.11,0.18-0.29,0.31-0.32c0.37-0.09,0.97,0.22,1.04,0.51c0.26,1.04,0.63,2.08,0.7,3.13c0.07,1.16,0.31,2.3,0.4,3.45
	c0.04,0.6,0.45,0.81,1.06,0.6c0.47-0.16,0.94-0.32,1.39-0.53c0.82-0.37,1.24-1.1,1.16-2.01c-0.03-0.33-0.11-0.65-0.21-0.96
	c-0.04-0.13-0.21-0.27-0.34-0.31c-0.55-0.15-1.17-0.08-1.63-0.51c-0.06-0.05-0.16-0.13-0.15-0.19c0.02-0.13,0.06-0.32,0.16-0.37
	c0.37-0.19,0.76-0.32,1.14-0.49c0.49-0.23,0.77-0.58,0.65-1.17c-0.04-0.18,0.09-0.32,0.28-0.34c0.24-0.03,0.53-0.1,0.72-0.01
	c0.73,0.35,1.45,0.32,2.11-0.08c0.42-0.25,0.77-0.25,1.13,0.02c0.33,0.24,0.64,0.52,0.94,0.79c0.19,0.17,0.15,0.51-0.03,0.64
	c-0.55,0.41-1.18,0.57-1.83,0.7c-0.38,0.08-0.51,0.41-0.53,0.75c-0.02,0.33,0.02,0.66,0.07,0.98c0.04,0.28,0.27,0.46,0.49,0.5
	c0.57,0.11,1.15,0.13,1.72,0.2c0.43,0.06,0.76,0.29,0.99,0.67c0.14,0.23,0.13,0.58-0.08,0.65
	C434.93,365.72,434.15,366.55,433.01,366.53z M426.86,367.3c-0.05,0.34-0.15,0.66-0.13,0.98c0.06,1.07,0.15,2.14,0.24,3.21
	c0.02,0.21,0.35,0.39,0.57,0.31c0.78-0.29,1.55-0.57,2.32-0.87c0.06-0.03,0.1-0.12,0.22-0.27c0.06-0.39,0.13-0.88,0.2-1.36
	c0.24-1.61-0.02-1.87-1.67-1.87C428.06,367.43,427.5,367.35,426.86,367.3z"/>
<path class="st0" d="M472.89,359.54c0.76-0.25,1.52-0.6,2.32-0.73c1.58-0.26,2.96-1.04,4.43-1.59c0.35-0.13,0.55-0.38,0.55-0.74
	c0.01-0.74-0.01-1.49-0.03-2.23c0-0.2-0.33-0.39-0.55-0.31c-0.55,0.21-1.1,0.37-1.69,0.33c-0.3-0.02-0.61-0.29-0.67-0.62
	c-0.07-0.4,0.06-0.73,0.34-0.83c0.78-0.29,1.56-0.55,2.33-0.86c0.77-0.31,0.99-0.94,0.66-1.83c-0.05-0.12-0.24-0.25-0.37-0.27
	c-0.24-0.03-0.51-0.02-0.73,0.07c-0.78,0.33-1.59,0.44-2.43,0.4c-0.15-0.01-0.35-0.11-0.41-0.23c-0.04-0.09,0.08-0.31,0.19-0.4
	c0.19-0.15,0.43-0.25,0.65-0.35c0.91-0.39,1.84-0.76,2.74-1.17c0.4-0.18,0.68-0.61,0.61-1.01c-0.21-1.38,0.01-2.82-0.6-4.15
	c-0.11-0.23,0.35-0.65,0.64-0.62c0.16,0.02,0.34-0.01,0.49,0.06c0.52,0.25,1.04,0.52,1.55,0.79c0.65,0.35,0.78,0.65,0.64,1.43
	c-0.08,0.49-0.17,0.98-0.24,1.47c-0.04,0.32,0.27,0.68,0.56,0.68c0.91-0.01,1.82-0.03,2.74-0.04c0.35,0,0.73,0.36,0.83,0.8
	c0.05,0.24,0.05,0.49,0.03,0.74c-0.02,0.3-0.41,0.65-0.68,0.63c-0.91-0.06-1.82-0.15-2.73-0.16c-0.32,0-0.59,0.26-0.73,0.6
	c-0.26,0.64,0.18,1.49,0.81,1.51c0.58,0.02,1.16-0.02,1.74-0.02c0.36,0,0.62,0.2,0.88,0.41c0.18,0.14,0.2,0.51,0.02,0.63
	c-0.14,0.09-0.26,0.25-0.41,0.26c-0.92,0.09-1.69,0.68-2.63,0.72c-0.36,0.01-0.6,0.29-0.68,0.62c-0.14,0.56-0.24,1.13-0.35,1.7
	c-0.06,0.35,0.43,0.87,0.77,0.81c2.03-0.38,4.11-0.47,6.1-1.04c0.23-0.07,0.49-0.08,0.73-0.06c0.98,0.11,1.97-0.27,2.94-0.01
	c0.48,0.13,0.89,0.42,1.18,0.86c0.11,0.17,0.09,0.5-0.05,0.7c-0.25,0.35-0.56,0.63-1,0.67c-0.41,0.03-0.83,0.05-1.24-0.02
	c-0.5-0.08-0.97-0.13-1.46,0.07c-0.31,0.13-0.63,0.05-0.95-0.12c-0.94-0.49-1.95-0.4-2.91-0.13c-0.95,0.28-1.95,0.37-2.85,0.85
	c-1.03,0.55-2.26,0.47-3.32,1.03c-1.02,0.54-2.14,0.87-3.26,1.18c-1.11,0.31-2.18,0.78-3.28,1.17c-0.45,0.16-0.96-0.14-1.19-0.65
	C472.81,360.21,472.78,359.89,472.89,359.54z"/>
<path class="st0" d="M466.03,376.54c-0.08-0.66-0.14-1.31-0.23-1.95c-0.05-0.34,0.02-0.65,0.11-0.97c0.11-0.39,0.24-0.8,0.24-1.21
	c0-0.83-0.04-1.66-0.16-2.48c-0.12-0.83,0.22-1.63,0.08-2.45c-0.05-0.33-0.1-0.66-0.2-0.97c-0.07-0.21-0.25-0.37-0.39-0.57
	c-1.74,2.46-1.97,2.71-4.3,4.47c-0.19,0.15-0.43,0.25-0.67,0.31c-0.14,0.03-0.31-0.04-0.46-0.1c-0.17-0.07-0.2-0.23-0.09-0.41
	c0.08-0.14,0.17-0.28,0.27-0.41c1.32-1.64,2-3.62,2.87-5.49c0.17-0.37,0.15-0.82,0.3-1.2c0.08-0.21,0.3-0.38,0.49-0.53
	c0.31-0.24,0.65-0.24,0.91,0c0.24,0.22,0.44,0.47,0.67,0.73c0.06-0.18,0.17-0.34,0.14-0.47c-0.27-1.31-0.35-2.63-0.34-3.96
	c0-0.31-0.35-0.58-0.67-0.58c-1.04,0.01-1.94,0.39-2.77,0.97c-0.48,0.33-0.92,0.71-1.4,1.04c-0.34,0.23-0.7,0.43-1.06,0.63
	c-0.91,0.51-1.75,0.42-2.53-0.37c0.14-0.18,0.24-0.41,0.42-0.52c0.98-0.63,1.99-1.2,2.95-1.85c1.21-0.81,2.62-0.99,3.96-1.37
	c0.23-0.07,0.49-0.1,0.7-0.2c0.13-0.07,0.26-0.24,0.28-0.38c0.06-0.41,0.06-0.83,0.1-1.24c0.06-0.66,0.05-1.34,0.2-1.97
	c0.16-0.67,0.21-1.29-0.01-1.95c-0.08-0.22-0.13-0.53-0.04-0.73c0.51-1.18-0.01-2.28-0.18-3.41c-0.05-0.32-0.22-0.62-0.28-0.94
	c-0.02-0.13,0.08-0.33,0.19-0.42c0.11-0.08,0.33-0.12,0.46-0.07c0.61,0.26,1.21,0.54,1.8,0.83c0.35,0.17,0.66,0.68,0.56,1.03
	c-0.31,1.06-0.22,2.14-0.29,3.21c-0.08,1.32,0.07,2.66-0.42,3.94c-0.06,0.15-0.02,0.33-0.03,0.49c-0.03,0.46,0.26,0.85,0.67,0.88
	c0.16,0.01,0.33,0.06,0.49,0.04c0.84-0.13,1.64,0.17,2.47,0.25c0.44,0.04,0.75,0.33,0.69,0.54c-0.07,0.27-0.25,0.4-0.49,0.5
	c-0.69,0.27-1.34,0.64-2.14,0.52c-0.4-0.06-0.83,0.04-1.23,0.11c-0.14,0.03-0.34,0.18-0.36,0.3c-0.16,0.73-0.28,1.46-0.39,2.2
	c-0.03,0.15,0.01,0.33,0.06,0.48c0.25,0.64,0.22,1.29,0.17,1.96c-0.09,1.5-0.05,3,0.2,4.47c0.14,0.81,0.06,1.63,0.22,2.44
	c0.19,0.97-0.02,1.99,0.34,2.95c0.34,0.93,0.13,1.99,0.63,2.9c0.11,0.2,0.05,0.49,0.05,0.74c0.01,0.92-1.05,1.33-1.58,0.95
	C466.72,376.99,466.37,376.76,466.03,376.54z"/>
<path class="st0" d="M411.28,362.04c0.41,0,0.82,0.03,1.23-0.01c0.34-0.04,0.61-0.26,0.71-0.6c0.09-0.31,0.14-0.64,0.21-0.95
	c0.06-0.23,0.33-0.35,0.57-0.25c0.3,0.13,0.63,0.23,0.89,0.42c0.18,0.12,0.36,0.35,0.41,0.55c0.16,0.66,0.14,1.3-0.33,1.86
	c-0.21,0.25-0.43,0.51-0.57,0.81c-0.1,0.2-0.06,0.47-0.09,0.71c-0.21,0.06-0.25,0.11-0.12,0.13c0.01,0,0.05-0.12,0.08-0.18
	c0.33,0.12,0.65,0.06,0.97-0.05c0.2-0.07,0.2-0.2,0.23-0.39c0.05-0.37,0.22-0.5,0.42-0.44c0.4,0.12,0.8,0.23,1.18,0.37
	c0.68,0.26,1.04,0.8,1.2,1.48c0.08,0.32,0.08,0.66,0.13,0.98c0.05,0.28,0.42,0.6,0.7,0.61c0.25,0.02,0.5,0.05,0.74,0.01
	c1.13-0.24,2.12,0.13,3.09,0.64c0.06,0.03,0.11,0.12,0.12,0.19c0.03,0.2-0.06,0.32-0.25,0.37c-0.81,0.22-1.65,0.24-2.47,0.15
	c-1.25-0.13-2.48,0.03-3.72,0.08c-0.77,0.03-1.44,0.34-2.03,0.85c-0.39,0.33-0.7,0.7-0.8,1.22c-0.12,0.65-0.33,1.29-0.41,1.94
	c-0.24,1.75-1.15,3.06-2.53,4.1c-0.33,0.25-0.66,0.53-1.03,0.7c-0.52,0.25-1.08,0.41-1.67,0.17c-0.19-0.08-0.36-0.47-0.23-0.6
	c0.23-0.24,0.44-0.49,0.69-0.7c1.34-1.12,1.96-2.65,2.33-4.29c0.02-0.08-0.19-0.22-0.31-0.31c-0.05-0.04-0.17-0.04-0.24-0.01
	c-1.36,0.42-2.63,1-3.71,1.95c-0.37,0.33-0.78,0.62-1.19,0.9c-0.45,0.32-1.6,0.31-2.04-0.33c-0.23-0.34-0.56-0.62-0.57-1.07
	c0-0.07,0.07-0.2,0.12-0.21c0.23-0.03,0.47-0.01,0.7-0.05c0.82-0.15,1.6-0.43,2.35-0.81c0.81-0.41,1.62-0.84,2.42-1.28
	c0.58-0.32,1.15-0.64,1.82-0.77c0.83-0.16,1.21-0.81,1.43-1.56c0.04-0.14-0.01-0.32-0.06-0.46c-0.07-0.2-0.2-0.15-0.4-0.08
	c-0.46,0.17-0.95,0.29-1.43,0.38c-0.44,0.08-0.51,0.03-1.35-0.51c0.97-0.68,1.9-1.37,2.54-2.37c0.08-0.13,0.17-0.38,0.11-0.45
	c-0.14-0.17-0.36-0.32-0.57-0.36c-0.32-0.07-0.66-0.04-0.99-0.04c-0.25,0-0.5,0.03-0.75,0.02c-0.45-0.02-1.1-0.81-1.03-1.25
	c0.11-0.66,0.29-1.3,0.8-1.78c0.24-0.23,0.47-0.49,0.75-0.65c0.72-0.41,1.03-1.01,1.09-1.83c0.02-0.26,0.37-0.5,0.58-0.75
	c0.55,0.15,1.03,0.27,1.5,0.4c0.2,0.06,0.31,0.44,0.19,0.63c-0.4,0.63-0.81,1.25-1.21,1.88c-0.19,0.3-0.2,0.62-0.13,0.96
	c-0.06,0.02-0.14,0.02-0.19,0.06c-0.03,0.02-0.03,0.09-0.04,0.13C411.15,362.2,411.21,362.12,411.28,362.04z M417.22,366.91
	c-0.18-0.16-0.38-0.3-0.53-0.48c-0.66-0.75-1.42-0.67-2.19-0.26c-0.5,0.27-0.97,0.59-1.44,0.91c-0.26,0.17-0.14,0.62,0.17,0.79
	c0.3,0.17,0.62,0.26,0.93,0.19c0.94-0.22,1.88-0.48,2.81-0.75C417.07,367.28,417.12,367.06,417.22,366.91z"/>
<path class="st0" d="M349.2,352.08c0.61-0.25,1.24-0.24,1.85-0.06c0.61,0.18,1.18,0.44,1.3,1.2c0.04,0.25,0.19,0.51,0.34,0.72
	c0.09,0.12,0.3,0.22,0.45,0.21c0.81-0.03,1.37-0.76,1.1-1.46c-0.19-0.5-0.42-1-0.7-1.45c-0.12-0.2-0.41-0.41-0.63-0.43
	c-0.74-0.04-1.41-0.24-1.99-0.7c-0.11-0.09-0.16-0.28-0.19-0.43c-0.01-0.06,0.08-0.2,0.14-0.21c1.94-0.37,3.85-0.82,5.77-1.27
	c0.34-0.08,0.72-0.14,1.06-0.08c0.7,0.13,1.4,0.31,2.08,0.53c0.34,0.11,0.43,0.61,0.13,0.88c-0.34,0.31-0.69,0.59-1.15,0.66
	c-0.62,0.1-1.24,0.16-1.86,0.24c-0.24,0.03-0.4,0.38-0.29,0.63c0.07,0.16,0.19,0.31,0.25,0.48c0.16,0.45,0.38,0.8,0.92,0.82
	c0.36,0.01,0.73-0.01,1.07,0.08c0.33,0.09,0.66,0.27,0.93,0.48c0.41,0.31,0.4,0.9,0,1.13c-0.61,0.37-1.25,0.7-1.86,1.07
	c-0.14,0.09-0.25,0.25-0.36,0.38c-0.22,0.28-0.02,1.08,0.31,1.16c0.26,0.06,0.54,0.05,0.8,0.11c0.36,0.09,0.64,0.28,0.87,0.58
	c0.16,0.21,0.16,0.59-0.04,0.7c-0.7,0.39-1.38,0.78-2.2,0.95c-1.32,0.27-2.61,0.66-3.91,1c-0.48,0.12-0.8,0.39-0.89,0.89
	c-0.08,0.44-0.21,0.89-0.16,1.32c0.18,1.61,0.05,3.21-0.05,4.82c-0.07,1.06,0.11,2.14,0.2,3.21c0.14,1.43,0.23,2.86,0.12,4.3
	c-0.03,0.38-0.45,0.55-0.81,0.36c-1.29-0.65-1.64-1.82-1.72-3.12c-0.02-0.36,0-0.72,0.06-1.07c0.13-0.72,0.13-1.39-0.09-2.12
	c-0.18-0.58-0.13-1.25-0.12-1.87c0.06-2.15,0.02-4.3-0.03-6.45c-0.03-1.53-0.05-3.05,0.02-4.58c0.06-1.2-0.13-2.31-0.74-3.35
	C349.15,352.26,349.19,352.16,349.2,352.08z M354.55,355.75c-0.44-0.05-0.78-0.1-1.13-0.11c-0.27-0.01-0.58,0.09-0.63,0.38
	c-0.11,0.7-0.16,1.41-0.2,2.12c0,0.09,0.27,0.28,0.37,0.26c0.24-0.06,0.56-0.18,0.66-0.37
	C353.96,357.31,354.22,356.57,354.55,355.75z"/>
<path class="st0" d="M420.83,357.88c0.43-1.05,0.91-1.98,1.55-2.86c1.06-1.46,1.99-3.01,2.56-4.75c0.17-0.52,0.11-0.96-0.08-1.4
	c0.32-0.45,0.73-0.73,1.25-0.73c0.74-0.01,1.48,0,2.22,0.07c0.62,0.06,1.03,0.48,1.29,1.03c0.07,0.14,0.12,0.35,0.06,0.47
	c-0.25,0.51-0.49,1.05-0.83,1.49c-0.91,1.17-1.87,2.3-2.82,3.43c-0.37,0.43-0.78,0.84-1.21,1.22c-1,0.87-2.1,1.58-3.29,2.14
	C421.35,358.06,421.08,357.92,420.83,357.88z"/>
<path class="st0" d="M429.81,353.51c-0.32-0.26-0.57-0.47-0.83-0.68c0.84-0.81,1.86-0.88,2.93-0.76c0.51,0.06,0.77,0.56,0.58,0.86
	c-0.46,0.74-0.15,1.64-0.55,2.45c0.75,0.08,1.49,0.15,2.22,0.24c0.24,0.03,0.47,0.13,0.7,0.2c0.18,0.06,0.37,0.36,0.33,0.61
	c-0.02,0.15-0.08,0.37-0.19,0.43c-0.43,0.23-0.88,0.5-1.34,0.57c-1.7,0.28-3.38,0.67-5.06,1.06c-0.3,0.07-0.65-0.04-0.97-0.08
	c-0.21-0.03-0.33-0.22-0.19-0.36C428.67,356.76,429.17,355.11,429.81,353.51z"/>
<path class="st0" d="M408.68,352.7c-0.11-0.11-0.32-0.26-0.42-0.46c-0.05-0.1,0.01-0.34,0.11-0.45c0.76-0.86,1.53-1.73,2.33-2.56
	c0.49-0.5,0.82-1.02,0.65-1.76c-0.01-0.07,0.23-0.29,0.35-0.28c1.31,0.12,2.33,0.74,3.06,1.83c0.23,0.35,0.09,0.89-0.33,1
	c-0.47,0.13-0.93,0.21-1.31,0.6c-0.82,0.84-1.79,1.43-2.99,1.61c-0.3,0.05-0.57,0.32-0.87,0.45
	C409.1,352.75,408.92,352.7,408.68,352.7z"/>
<path class="st0" d="M416.1,356.42c-0.41-0.03-0.62-0.16-0.7-0.41c-0.04-0.14-0.05-0.35,0.03-0.46c0.7-0.93,1.32-1.88,1.4-3.09
	c0.01-0.17,0.39-0.37,0.59-0.35c0.16,0.01,0.35-0.02,0.49,0.04c0.59,0.28,1.19,0.57,1.75,0.9c0.37,0.22,0.53,0.61,0.63,1.02
	c0.11,0.49-0.03,0.86-0.44,1c-0.39,0.13-0.78,0.25-1.17,0.39c-0.68,0.25-1.44,0.31-2.02,0.84
	C416.52,356.44,416.2,356.4,416.1,356.42z"/>
<path class="st0" d="M405.48,356.44c0-0.63-0.06-0.84,0.02-0.95c0.13-0.18,0.34-0.4,0.54-0.43c0.41-0.07,0.87-0.02,1.17,0.26
	c0.71,0.68,1.48,1.32,1.83,2.3c0.18,0.5,0.12,0.96-0.08,1.43c-0.07,0.17-0.44,0.44-0.58,0.4c-0.63-0.19-1.26-0.36-1.88-0.58
	c-0.32-0.11-0.56-0.39-0.64-0.71C405.67,357.44,405.54,356.71,405.48,356.44z"/>
<path class="st0" d="M413.03,374.28c-0.7-0.99-1.31-1.85-1.92-2.72c-0.09-0.13-0.17-0.29-0.18-0.45c-0.01-0.14,0.03-0.33,0.12-0.43
	c0.09-0.1,0.3-0.19,0.42-0.16c1.36,0.38,2.5,1.19,3.66,1.95c0.6,0.39,1,1.06,1.23,1.79c0.09,0.3-0.2,0.67-0.55,0.61
	c-0.48-0.09-0.95-0.22-1.42-0.32C413.99,374.46,413.59,374.39,413.03,374.28z"/>
<path class="st0" d="M472.55,364.09c-0.02,0.08-0.02,0.17-0.06,0.23c-0.4,0.55-1.04,0.79-1.56,1.17c-0.1,0.07-0.35,0.06-0.46-0.02
	c-0.73-0.53-1.48-1.04-2.14-1.64c-0.42-0.39-0.61-0.97-0.59-1.57c0.01-0.19,0.24-0.48,0.45-0.49c0.16-0.01,0.34-0.05,0.48,0.01
	c0.99,0.4,1.98,0.78,2.94,1.25c0.34,0.17,0.58,0.56,0.86,0.85C472.51,363.92,472.52,364.02,472.55,364.09z"/>
<path class="st0" d="M409.88,354.8c0.55-0.86,1.38-0.84,2.19-0.57c0.71,0.25,1.3,0.74,1.52,1.52c0.16,0.55,0.27,1.11,0.36,1.68
	c0.01,0.09-0.19,0.31-0.29,0.31c-0.94,0.02-1.76-0.35-2.53-0.83c-0.13-0.08-0.23-0.24-0.31-0.38
	C410.5,355.96,410.19,355.38,409.88,354.8z"/>
<path class="st0" d="M469.32,352.43c0.43-0.64,0.27-1.42,0.44-2.13c0.06-0.25,0.3-0.38,0.55-0.27c0.82,0.36,1.65,0.71,2.47,1.08
	c0.34,0.15,0.52,0.59,0.44,1.05c-0.03,0.15-0.14,0.28-0.23,0.41c-0.04,0.06-0.12,0.14-0.19,0.14c-1.17,0.07-2.11,0.84-3.25,1.01
	c-0.34,0.05-0.6-0.27-0.49-0.59c0.03-0.08,0.05-0.15,0.08-0.23C469.2,352.75,469.26,352.6,469.32,352.43z"/>
<path class="st0" d="M462.48,355.28c-1.15,0.1-1.77-0.34-2.22-1.14c-0.33-0.59-0.57-1.18-0.46-1.88c0.04-0.23,0.34-0.52,0.5-0.43
	c0.42,0.25,0.82,0.53,1.26,0.75c0.43,0.22,0.9,0.39,1.35,0.59c0.07,0.03,0.14,0.08,0.21,0.12c0.66,0.39,1.08,0.99,0.89,1.31
	c-0.28,0.47-0.74,0.63-1.25,0.67C462.59,355.29,462.42,355.28,462.48,355.28z"/>
<g>
	<path class="st1" d="M351.53,398.79c0,0.89-0.17,1.54-0.51,1.97c-0.34,0.42-0.8,0.64-1.38,0.64c-0.26,0-0.48-0.04-0.65-0.11v-0.76
		c0.17,0.12,0.4,0.18,0.67,0.18c0.74,0,1.11-0.64,1.11-1.91v-4.5h0.77V398.79z"/>
	<path class="st1" d="M362.89,394.96h-0.69v5.64h0.69v0.67h-2.15v-0.67h0.69v-5.64h-0.69v-0.67h2.15V394.96z"/>
	<path class="st1" d="M377.78,401.28h-0.96l-3.64-5.64c-0.08-0.13-0.15-0.27-0.22-0.42h-0.03c0.02,0.14,0.04,0.46,0.04,0.94v5.12
		h-0.77v-6.99h1.02l3.54,5.58c0.18,0.29,0.27,0.45,0.28,0.48h0.02c-0.03-0.23-0.05-0.58-0.05-1.05v-5.01h0.77V401.28z"/>
	<path class="st1" d="M387.75,401.28v-6.99h1.89c2.46,0,3.68,1.13,3.68,3.4c0,1.09-0.33,1.96-0.99,2.61
		c-0.66,0.65-1.58,0.97-2.76,0.97H387.75z M388.52,395v5.58h1.06c0.93,0,1.65-0.25,2.17-0.75c0.52-0.5,0.78-1.2,0.78-2.11
		c0-1.82-0.97-2.72-2.9-2.72H388.52z"/>
	<path class="st1" d="M404.31,394.96h-0.69v5.64h0.69v0.67h-2.15v-0.67h0.69v-5.64h-0.69v-0.67h2.15V394.96z"/>
	<path class="st1" d="M419.19,401.28h-0.96l-3.64-5.64c-0.08-0.13-0.15-0.27-0.22-0.42h-0.03c0.02,0.14,0.04,0.46,0.04,0.94v5.12
		h-0.77v-6.99h1.02l3.54,5.58c0.18,0.29,0.27,0.45,0.28,0.48h0.02c-0.03-0.23-0.05-0.58-0.05-1.05v-5.01h0.77V401.28z"/>
	<path class="st1" d="M434.35,400.8c-0.7,0.4-1.47,0.6-2.33,0.6c-0.99,0-1.79-0.32-2.4-0.97c-0.61-0.65-0.92-1.5-0.92-2.55
		c0-1.08,0.34-1.96,1.02-2.66c0.68-0.7,1.54-1.04,2.59-1.04c0.77,0,1.41,0.12,1.91,0.37v0.87c-0.56-0.36-1.23-0.54-2-0.54
		c-0.79,0-1.44,0.27-1.95,0.81c-0.51,0.54-0.76,1.25-0.76,2.12c0,0.89,0.23,1.59,0.7,2.11c0.47,0.51,1.11,0.77,1.92,0.77
		c0.56,0,1.05-0.11,1.45-0.34v-2h-1.54v-0.7h2.31V400.8z"/>
	<path class="st1" d="M443.79,400.07c0.2,0.18,0.48,0.33,0.85,0.44c0.37,0.12,0.71,0.18,1.02,0.18c1.02,0,1.52-0.37,1.52-1.11
		c0-0.21-0.05-0.39-0.16-0.55c-0.1-0.16-0.25-0.3-0.43-0.42c-0.18-0.12-0.53-0.31-1.06-0.58c-0.76-0.39-1.24-0.73-1.44-1.01
		c-0.2-0.29-0.3-0.61-0.3-0.98c0-0.56,0.23-1.01,0.69-1.35c0.46-0.34,1.03-0.5,1.72-0.5c0.7,0,1.19,0.08,1.48,0.25v0.89
		c-0.41-0.28-0.94-0.42-1.58-0.42c-0.44,0-0.8,0.09-1.08,0.28c-0.28,0.19-0.42,0.45-0.42,0.79c0,0.21,0.05,0.39,0.15,0.55
		c0.1,0.15,0.23,0.29,0.4,0.4c0.17,0.11,0.5,0.29,0.98,0.54c0.69,0.34,1.17,0.67,1.44,0.99c0.27,0.32,0.41,0.69,0.41,1.09
		c0,0.6-0.22,1.06-0.65,1.38c-0.43,0.32-1.04,0.49-1.82,0.49c-0.24,0-0.55-0.04-0.93-0.12c-0.38-0.08-0.65-0.17-0.8-0.28V400.07z"/>
	<path class="st1" d="M462.72,401.28h-0.77v-3.21h-3.66v3.21h-0.77v-6.99h0.77v3.08h3.66v-3.08h0.77V401.28z"/>
	<path class="st1" d="M478.06,401.28h-0.85l-0.76-1.98h-2.99l-0.71,1.98h-0.86l2.69-6.99h0.78L478.06,401.28z M476.19,398.59
		l-1.12-3.02c-0.03-0.08-0.06-0.24-0.1-0.46h-0.02c-0.03,0.2-0.07,0.36-0.11,0.46l-1.1,3.02H476.19z"/>
	<path class="st1" d="M492.81,401.28h-0.96l-3.64-5.64c-0.08-0.13-0.15-0.27-0.22-0.42h-0.03c0.02,0.14,0.04,0.46,0.04,0.94v5.12
		h-0.77v-6.99h1.02l3.54,5.58c0.18,0.29,0.27,0.45,0.28,0.48h0.02c-0.03-0.23-0.05-0.58-0.05-1.05v-5.01h0.77V401.28z"/>
</g>
<g>
	<path class="st2" d="M521.4,376.2c-0.05-0.04-0.09-0.09-0.13-0.12c-0.12-0.09-0.24-0.14-0.39-0.12c-0.18,0.03-0.37,0.04-0.56,0.06
		c-0.05,0.01-0.09,0.02-0.14,0.01c-0.47-0.05-0.94,0.04-1.41,0.01c-0.25-0.02-0.5-0.02-0.75-0.06c-0.36-0.05-0.72-0.05-1.08,0.01
		c-0.25,0.05-0.5,0.06-0.75,0.06c-0.28,0-0.56,0-0.84,0c-0.17,0-0.35-0.01-0.52,0.01c-0.17,0.01-0.34,0.03-0.51,0.05
		c-0.2,0.02-0.4,0.02-0.61-0.02c-0.21-0.04-0.43-0.04-0.65-0.04c-0.69-0.01-1.38-0.01-2.06,0c-0.41,0-0.81,0.01-1.22,0.01
		c-0.23,0.01-0.47,0-0.7-0.04c-0.32-0.05-0.65-0.06-0.98-0.07c-0.06,0-0.13,0-0.19-0.01c-0.06-0.02-0.12-0.04-0.17-0.08
		c-0.12-0.1-0.22-0.23-0.28-0.37c-0.02-0.04-0.04-0.1-0.02-0.13c0.06-0.13,0.01-0.24-0.01-0.36c-0.03-0.23-0.02-0.47-0.02-0.7
		c0-0.56,0.01-1.13,0.02-1.69c0-0.28-0.02-0.56,0.01-0.84c0.03-0.26,0.02-0.52,0.03-0.78c0.01-0.42,0.01-0.84,0.02-1.27
		c0-0.03,0-0.06,0-0.09c-0.1-0.51-0.05-1.03-0.09-1.54c-0.01-0.08,0-0.16-0.01-0.23c-0.07-0.31-0.06-0.62-0.06-0.93
		c0-0.83,0.01-1.66,0.01-2.49c0-0.06,0-0.13,0.02-0.19c0.07-0.19,0.03-0.37-0.04-0.54c-0.04-0.1-0.06-0.21-0.06-0.32
		c0-0.28,0-0.56-0.01-0.84c0-0.19,0-0.37,0.04-0.56c0.02-0.07,0.01-0.15,0.01-0.23c-0.02-0.32,0.11-0.57,0.37-0.76
		c0.06-0.05,0.12-0.1,0.19-0.14c0.05-0.03,0.11-0.05,0.17-0.07c0.13,0.02,0.23,0.09,0.33,0.16c0.1,0.07,0.21,0.09,0.31,0.06
		c0.2-0.07,0.4-0.05,0.6-0.06c0.36-0.01,0.72-0.01,1.08-0.02c0.14,0,0.28-0.02,0.42-0.02c0.17,0,0.34-0.04,0.51,0.01
		c0.1,0.03,0.22,0.02,0.33,0.02c0.55,0,1.1,0,1.64,0c0.34,0,0.69,0,1.03,0.01c0.14,0,0.28,0,0.42,0.05
		c0.09,0.03,0.19,0.02,0.28,0.03c0.28,0.01,0.56,0.03,0.84,0.04c0.5,0.02,1,0.01,1.5-0.01c0.16-0.01,0.32-0.02,0.47,0
		c0.86,0.1,1.72,0.07,2.58,0.07c0.38,0,0.75,0,1.12,0.06c0.17,0.02,0.34,0.05,0.5,0.09c0.14,0.03,0.26,0.11,0.28,0.28
		c0.01,0.08,0.03,0.15,0.05,0.23c0.08,0.29,0.09,0.58,0.04,0.88c-0.03,0.22-0.04,0.44-0.03,0.65c0.01,0.23-0.03,0.47-0.06,0.7
		c-0.01,0.12-0.06,0.25-0.05,0.37c0.03,0.41-0.09,0.81-0.08,1.21c0.01,0.39,0,0.78-0.01,1.17c0,0.22,0,0.44,0,0.66
		c0,0.05,0,0.09,0,0.14c-0.01,0.17,0.06,0.34,0.06,0.51c0,0.15-0.04,0.31-0.05,0.46c-0.02,0.15,0.04,0.3,0,0.46
		c-0.04,0.15-0.04,0.31-0.03,0.47c0.02,0.61,0.03,1.22,0.03,1.83c0,0.08,0.02,0.15,0.03,0.23c0.02,0.11,0.03,0.21,0.01,0.32
		c-0.01,0.04-0.03,0.1-0.01,0.14c0.08,0.2,0.04,0.4,0.05,0.6c0.01,0.25,0.02,0.5,0.01,0.75c0,0.2-0.01,0.41-0.05,0.61
		c-0.06,0.22-0.06,0.44-0.01,0.65c0.07,0.29,0.06,0.59,0.03,0.88c-0.01,0.08-0.01,0.16-0.01,0.23c0,0.1-0.03,0.19-0.09,0.26
		c-0.03,0.04-0.07,0.08-0.11,0.08c-0.16,0.01-0.3,0.08-0.44,0.14C521.53,376.18,521.46,376.18,521.4,376.2z M513.15,367.01
		c0.09,0,0.19-0.01,0.28,0c0.18,0.01,0.29-0.09,0.36-0.24c0.03-0.06,0.06-0.11,0.07-0.17c0.09-0.38,0.24-0.74,0.22-1.14
		c0-0.03,0.02-0.06,0.03-0.11c0.15-0.11,0.31-0.23,0.48-0.35c0.08-0.05,0.16,0,0.16,0.09c0,0.11-0.01,0.22-0.02,0.33
		c-0.02,0.21-0.1,0.39-0.17,0.59c-0.01,0.03,0.02,0.08,0.03,0.13c0.16-0.02,0.32-0.04,0.47-0.06c0.16-0.02,0.29-0.09,0.41-0.21
		c0.25-0.26,0.51-0.51,0.72-0.8c0.04-0.06,0.09-0.13,0.15-0.18c0.17-0.15,0.29-0.33,0.41-0.51c0.07-0.11,0.16-0.19,0.07-0.33
		c-0.02-0.03,0.01-0.09,0.02-0.13c0.06-0.21,0.21-0.39,0.32-0.57c0.02-0.03,0.08-0.06,0.12-0.06c0.16,0,0.3,0.07,0.44,0.14
		c0.06,0.03,0.09,0.08,0.1,0.15c0,0.03,0,0.06,0,0.09c-0.01,0.11,0.04,0.17,0.12,0.23c0.19,0.13,0.38,0.27,0.56,0.42
		c0.21,0.17,0.42,0.32,0.65,0.45c0.29,0.15,0.59,0.3,0.85,0.5c0.06,0.05,0.14,0.08,0.2,0.12c0.13,0.07,0.26,0.1,0.4,0.13
		c0.11,0.02,0.23-0.07,0.23-0.17c-0.03-0.74,0.05-1.47-0.09-2.2c-0.01-0.31-0.03-0.63,0.02-0.94c0.01-0.03,0.01-0.06,0.01-0.09
		c0.01-0.06-0.07-0.13-0.12-0.11c-0.08,0.05-0.18,0.07-0.27,0.08c-0.3,0.06-0.59,0.04-0.89,0.02c-0.06,0-0.13-0.03-0.18-0.01
		c-0.19,0.05-0.38,0.02-0.56,0.02c-0.34,0.01-0.69,0.01-1.03-0.02c-0.31-0.03-0.62-0.04-0.94-0.03c-0.48,0.01-0.97,0.01-1.46,0
		c-0.3-0.01-0.6,0-0.89-0.08c-0.12-0.03-0.25-0.01-0.37,0.01c-0.17,0.03-0.35,0.04-0.51,0.01c-0.19-0.04-0.37-0.04-0.56-0.03
		c-0.31,0.02-0.62,0-0.93,0.07c-0.06,0.02-0.13,0.01-0.19,0.02c-0.48,0.01-0.97-0.04-1.45-0.02c-0.03,0-0.06,0-0.09-0.02
		c-0.12-0.05-0.24-0.02-0.37,0c-0.08,0.01-0.16,0.03-0.23,0.03c-0.4-0.03-0.81,0.04-1.21-0.08c-0.04-0.01-0.09,0-0.14,0
		c-0.06,0-0.13,0.06-0.13,0.11c0,0.14,0,0.28,0.01,0.42c0.01,0.08,0.03,0.15,0.01,0.23c-0.09,0.26,0.05,0.53-0.03,0.79
		c-0.01,0.03,0,0.06,0.01,0.09c0.01,0.05,0.02,0.09,0.03,0.14c0.01,0.06,0.02,0.12,0.02,0.19c0.01,0.33,0.01,0.66,0.02,0.98
		c0,0.16,0.01,0.31,0.02,0.47c0.04,0.55,0.06,1.09,0.08,1.64c0.01,0.2,0.04,0.41,0.02,0.61c-0.02,0.21-0.01,0.4,0.03,0.61
		c0.01,0.06,0.02,0.12,0.02,0.18c0.01,0.36,0.02,0.72,0.03,1.08c0,0.08,0,0.16,0.01,0.24c0.06,0.4,0.05,0.81,0.04,1.22
		c0,0.14-0.03,0.28-0.03,0.42c0,0.16,0.04,0.31,0.05,0.47c0.01,0.11,0,0.22-0.01,0.33c-0.03,0.37-0.05,0.75-0.03,1.12
		c0.02,0.25,0.02,0.5-0.01,0.75c-0.01,0.06-0.01,0.12-0.01,0.19c0.01,0.14,0.02,0.28,0.03,0.42c0.01,0.09,0.02,0.19,0.04,0.28
		c0,0.02,0.04,0.06,0.07,0.06c0.08,0.01,0.15,0.01,0.23,0.02c0.33,0.01,0.66-0.01,0.98,0.05c0.4,0.07,0.81,0.06,1.22,0.04
		c0.14,0,0.28-0.02,0.42-0.01c0.66,0.05,1.31,0.04,1.97,0.03c0.33-0.01,0.66,0.01,0.98,0.06c0.29,0.04,0.59,0.04,0.89-0.01
		c0.11-0.02,0.22-0.03,0.33-0.03c0.31,0,0.63,0,0.94,0c0.3,0.01,0.6-0.01,0.89-0.05c0.2-0.03,0.4-0.03,0.61-0.05
		c0.17-0.02,0.34-0.01,0.51,0.03c0.15,0.03,0.31,0.05,0.47,0.05c0.5,0.01,1,0,1.5,0c0.05,0,0.09-0.01,0.14-0.02
		c0.12-0.01,0.18-0.07,0.18-0.17c0-0.05,0.01-0.09,0.01-0.14c-0.02-0.56-0.06-1.12-0.05-1.69c0-0.02,0-0.03-0.01-0.05
		c-0.01-0.03-0.03-0.05-0.05-0.07c-0.02-0.03-0.09,0-0.12,0.04c-0.06,0.09-0.11,0.19-0.17,0.28c-0.07,0.1-0.16,0.19-0.3,0.21
		c-0.12,0.02-0.24,0.07-0.36,0.08c-0.11,0.01-0.16,0.09-0.24,0.16c-0.14-0.1-0.29-0.18-0.41-0.3c-0.23-0.23-0.5-0.31-0.81-0.32
		c-0.11,0-0.22,0.02-0.33-0.01c-0.12-0.03-0.22-0.1-0.33-0.15c-0.08,0.05-0.18,0.11-0.26,0.01c-0.1-0.12-0.23-0.15-0.38-0.13
		c-0.26,0.03-0.52,0.08-0.79,0.09c-0.06,0-0.13,0.02-0.18,0.06c-0.24,0.15-0.53,0.19-0.78,0.33c-0.28,0.05-0.47,0.24-0.63,0.45
		c-0.07,0.08-0.12,0.18-0.18,0.27c-0.02,0.04-0.05,0.08-0.08,0.11c-0.03,0.03-0.07,0.07-0.11,0.08c-0.15,0.03-0.31,0.08-0.46,0.07
		c-0.14-0.01-0.28-0.01-0.42,0.01c-0.05,0.01-0.1,0.01-0.14-0.01c-0.15-0.04-0.31-0.04-0.46-0.01c-0.15,0.03-0.31,0.03-0.44,0.12
		c-0.01,0.01-0.03,0.01-0.05,0.01c-0.04-0.01-0.1-0.02-0.13-0.05c-0.05-0.04-0.08-0.1-0.11-0.15c-0.06-0.14-0.11-0.29-0.09-0.45
		c0.03-0.25-0.03-0.46-0.22-0.63c-0.01-0.01-0.01-0.03-0.02-0.06c0.13-0.07,0.26-0.16,0.4-0.2c0.18-0.05,0.36-0.09,0.55-0.13
		c0.18-0.04,0.37-0.05,0.56-0.06c0.11,0,0.21,0.04,0.32,0.04c0.35,0.02,0.68,0.11,0.99,0.27c0.03,0.01,0.06,0.02,0.09,0.02
		c0.03,0.01,0.1-0.02,0.12-0.06c0.01-0.03,0.03-0.05,0.04-0.08c0.03-0.12-0.04-0.23-0.15-0.24c-0.17-0.01-0.34-0.06-0.51-0.02
		c-0.07,0.02-0.16,0.01-0.23-0.01c-0.11-0.03-0.22,0.01-0.32,0c-0.12,0-0.25-0.05-0.37-0.05c-0.28,0-0.56-0.06-0.83,0.07
		c-0.07,0.03-0.15,0.02-0.23,0.02c-0.19,0.01-0.37,0.01-0.56,0.02c-0.06,0-0.12,0.01-0.19,0.02c-0.12,0.02-0.19,0.11-0.19,0.22
		c0,0.2,0.02,0.41,0.07,0.6c0.06,0.21,0.07,0.44,0.05,0.65c-0.02,0.2-0.1,0.39-0.16,0.58c-0.01,0.02-0.06,0.03-0.08,0.02
		c-0.1-0.04-0.17-0.13-0.27-0.18c-0.11-0.06-0.17-0.18-0.15-0.32c0.02-0.19,0.03-0.37,0.01-0.56c-0.01-0.19,0.02-0.37-0.02-0.56
		c-0.02-0.09-0.01-0.19-0.02-0.28c-0.01-0.06-0.01-0.12-0.02-0.19c-0.04-0.19-0.08-0.23-0.28-0.23c-0.06,0-0.13,0-0.19,0
		c-0.15,0-0.19,0.03-0.23,0.17c-0.04,0.13-0.07,0.27-0.11,0.41c-0.03,0.09-0.06,0.18-0.1,0.26c-0.06,0.13-0.13,0.25-0.2,0.37
		c-0.1,0.16-0.21,0.31-0.31,0.47c-0.08,0.12-0.22,0.17-0.34,0.23c-0.01,0-0.03-0.01-0.03-0.01c-0.01-0.04-0.03-0.09-0.03-0.13
		c-0.03-0.18,0.01-0.34,0.15-0.47c0.08-0.08,0.17-0.15,0.21-0.25c0.11-0.21,0.21-0.42,0.21-0.66c0-0.17-0.01-0.35,0.04-0.51
		c0.08-0.26,0.05-0.53,0.02-0.79c-0.02-0.11-0.05-0.22-0.03-0.32c0.02-0.14,0-0.28,0-0.42c-0.01-0.2-0.01-0.41-0.01-0.61
		c0-0.06,0.05-0.12,0.1-0.14c0.31-0.11,0.63-0.19,0.95-0.22c0.23-0.1,0.46,0.01,0.69,0.02c0.03,0,0.06,0.03,0.07,0.05
		c0.04,0.06,0.1,0.13,0.08,0.21c-0.04,0.26-0.02,0.53-0.09,0.79c-0.02,0.07-0.03,0.16-0.03,0.23c0.02,0.35-0.01,0.69-0.03,1.03
		c0,0.02,0,0.03,0,0.05c0,0.09,0.09,0.16,0.15,0.11c0.15-0.13,0.33-0.17,0.53-0.16c0.06,0,0.12-0.01,0.18-0.03
		c0.06-0.01,0.11-0.11,0.11-0.19c-0.01-0.07-0.05-0.11-0.11-0.13c-0.07-0.02-0.15-0.03-0.22-0.05c-0.05-0.02-0.05-0.07-0.06-0.12
		c-0.01-0.04,0.04-0.11,0.07-0.11c0.03-0.01,0.06-0.01,0.09-0.02c0.26-0.06,0.51-0.15,0.75-0.27c0.02-0.01,0.03-0.05,0.04-0.08
		c0.01-0.03-0.04-0.1-0.08-0.1c-0.17-0.02-0.34-0.01-0.51,0.06c-0.13,0.06-0.3-0.04-0.33-0.18c-0.01-0.06-0.01-0.12-0.01-0.19
		c0-0.03,0.03-0.06,0.06-0.07c0.26-0.05,0.52-0.09,0.78-0.13c0.03-0.01,0.06,0,0.09-0.01c0.02-0.01,0.05-0.04,0.06-0.06
		c0.01-0.03-0.01-0.06-0.05-0.06c-0.06-0.01-0.13-0.03-0.18-0.01c-0.21,0.06-0.4,0.01-0.6-0.04c-0.04-0.01-0.08-0.04-0.12-0.07
		c-0.04-0.03-0.05-0.13-0.01-0.17c0.03-0.03,0.07-0.06,0.11-0.1c-0.02-0.06-0.04-0.12-0.05-0.18c-0.01-0.03,0-0.06,0.01-0.09
		c0.03-0.08,0.09-0.12,0.16-0.17c0.06-0.04,0.12-0.01,0.18,0c0.09,0.02,0.15-0.04,0.11-0.13c-0.1-0.27-0.11-0.54-0.01-0.82
		c0.06-0.16,0.06-0.34,0.09-0.5c-0.07-0.15,0.01-0.3-0.04-0.46c-0.06-0.2-0.01-0.4,0.15-0.56c0.01-0.01,0.02-0.02,0.03-0.03
		c0.03-0.04,0.01-0.1-0.02-0.12c-0.28-0.08-0.56-0.06-0.84-0.06c-0.24,0-0.46,0.04-0.68,0.14c-0.19,0.09-0.39-0.02-0.41-0.24
		c-0.02-0.19-0.04-0.37-0.04-0.56c0-0.36,0-0.72,0.01-1.08c0-0.11,0-0.22-0.04-0.32c-0.11-0.23-0.15-0.47-0.14-0.73
		c0-0.07-0.04-0.11-0.11-0.14c-0.03-0.01-0.07-0.03-0.07-0.06c-0.01-0.04-0.01-0.1,0-0.14c0.1-0.23,0.26-0.39,0.53-0.38
		c0.08,0,0.16,0,0.24-0.01c0.08,0,0.16,0.01,0.23-0.01c0.23-0.08,0.46-0.07,0.7-0.08c0.08,0,0.16-0.01,0.23-0.02
		c0.2-0.04,0.4-0.08,0.6-0.12c0.2-0.04,0.41-0.06,0.6-0.01c0.15,0.04,0.31,0.05,0.46,0.07c0.09,0.01,0.19,0.03,0.27,0.08
		c0.03,0.02,0.04,0.05,0.02,0.08c-0.03,0.04-0.07,0.07-0.09,0.11c-0.05,0.2-0.17,0.37-0.24,0.56c-0.06,0.15-0.11,0.29-0.1,0.46
		c0,0.08-0.01,0.16-0.03,0.23c-0.11,0.36-0.14,0.73-0.19,1.11c-0.05,0.37-0.12,0.74-0.34,1.06c-0.01,0.02,0,0.06,0,0.09
		c-0.01,0.01-0.02,0.01-0.03,0.02C513.14,367.03,513.15,367.02,513.15,367.01z M517.15,367.84c0.01,0.06,0.02,0.12,0.03,0.18
		c0.02,0.11,0.06,0.13,0.16,0.11c0.09-0.02,0.18-0.04,0.27-0.07c0.11-0.03,0.21,0.02,0.32,0.02c0.03,0,0.06-0.01,0.09-0.02
		c0.26-0.04,0.53-0.02,0.8-0.02c0.05,0,0.09,0.01,0.14,0.02c0.23,0.08,0.47,0.17,0.7,0.26c0.05,0.02,0.07,0.12,0.04,0.16
		c-0.1,0.11-0.22,0.21-0.3,0.35c-0.07,0.12-0.26,0.16-0.38,0.1c-0.23-0.12-0.48-0.13-0.72-0.21c-0.08-0.02-0.18,0-0.29,0
		c0.03,0.06,0.05,0.1,0.08,0.13c0.12,0.09,0.15,0.19,0.1,0.33c-0.02,0.06-0.03,0.12-0.03,0.18c-0.01,0.4-0.02,0.81-0.03,1.22
		c0,0.04,0.02,0.08,0.03,0.16c0.13-0.11,0.25-0.2,0.33-0.34c0.09-0.16,0.2-0.31,0.3-0.47c0.05-0.08,0.13-0.14,0.22-0.16
		c0.27-0.08,0.53-0.05,0.74,0.15c0.07,0.06,0.13,0.14,0.18,0.21c0.06,0.08,0.07,0.19,0.04,0.27c-0.07,0.17-0.14,0.34-0.29,0.47
		c-0.18,0.15-0.37,0.29-0.62,0.28c-0.01,0-0.03,0-0.05,0.01c-0.21,0.1-0.42,0.08-0.64,0.01c-0.04-0.01-0.09-0.01-0.14-0.01
		c-0.03,0-0.11,0.05-0.11,0.07c0,0.16,0,0.31,0.01,0.47c0.01,0.04,0.05,0.08,0.1,0.09c0.06,0.01,0.12,0.03,0.19,0.03
		c0.16,0,0.31,0.03,0.45,0.09c0.25,0.1,0.5,0.18,0.74,0.29c0.33,0.16,0.67,0.12,1.01,0.05c0.18-0.03,0.28-0.19,0.28-0.38
		c0-0.28,0-0.56-0.02-0.84c-0.02-0.28,0.02-0.56,0.03-0.84c0-0.03-0.01-0.06,0-0.09c0.02-0.39-0.04-0.78-0.02-1.17
		c0.01-0.19,0.02-0.37-0.02-0.56c-0.02-0.11-0.02-0.22-0.01-0.33c0.01-0.2-0.02-0.4-0.02-0.61c-0.01-0.22,0.02-0.44,0.03-0.66
		c0-0.08,0-0.16,0-0.23c0-0.05,0-0.09-0.01-0.14c0-0.09-0.07-0.15-0.15-0.14c-0.2,0.03-0.4,0.06-0.6,0.1c-0.1,0.02-0.19,0-0.27-0.06
		c-0.14-0.1-0.28-0.2-0.42-0.3c-0.16-0.13-0.33-0.23-0.51-0.33c-0.33-0.18-0.64-0.4-0.89-0.68c-0.13-0.15-0.29-0.28-0.46-0.39
		c-0.01-0.01-0.03,0-0.05,0c-0.38,0.55-0.54,0.82-0.67,1.16c0.07,0.02,0.16,0.03,0.22,0.06c0.12,0.06,0.24,0.06,0.36,0.02
		c0.28-0.08,0.56-0.04,0.84-0.04c0.05,0,0.09,0.01,0.14,0.03c0.22,0.09,0.44,0.15,0.68,0.19c0.04,0.01,0.08,0.05,0.13,0.08
		c-0.06,0.06-0.13,0.1-0.17,0.16c-0.05,0.06-0.07,0.14-0.1,0.21c-0.01,0.01-0.02,0.03-0.03,0.04c-0.05,0.07-0.1,0.12-0.19,0.12
		c-0.28,0.01-0.56,0.02-0.84-0.07c-0.21-0.06-0.43-0.05-0.64,0.05c-0.06,0.03-0.09,0.08-0.1,0.15c0,0.03,0,0.06,0,0.09
		c0,0.09,0.08,0.15,0.15,0.14c0.06-0.02,0.12-0.04,0.18-0.06c0.18-0.07,0.35-0.11,0.55-0.04c0.07,0.03,0.15,0.01,0.23,0.02
		c0.24,0,0.46,0.09,0.69,0.13c0.06,0.01,0.11,0.06,0.16,0.08c0,0.02,0,0.04-0.01,0.05c-0.09,0.14-0.25,0.24-0.27,0.43
		c0,0.02-0.04,0.04-0.07,0.06c-0.09,0.06-0.2,0.1-0.31,0.08c-0.21-0.04-0.43-0.09-0.64-0.13c-0.1-0.02-0.19-0.02-0.28,0.01
		c-0.07,0.03-0.15,0.03-0.22,0.06C517.26,367.72,517.19,367.76,517.15,367.84z M517.27,371.01c-0.02,0-0.04-0.01-0.05,0
		c-0.21,0.15-0.42,0.32-0.53,0.57c-0.01,0.03-0.03,0.05-0.05,0.08c-0.06,0.09-0.23,0.15-0.34,0.12c-0.2-0.06-0.36-0.19-0.49-0.34
		c-0.02-0.02-0.03-0.06-0.04-0.09c-0.01-0.14-0.05-0.27-0.12-0.4c-0.05-0.09-0.04-0.21,0.03-0.31c0.11-0.17,0.2-0.35,0.33-0.51
		c0.08-0.11,0.15-0.12,0.23-0.03c0.18,0.2,0.39,0.31,0.66,0.3c0.05,0,0.09,0.03,0.13,0.03c0.07,0,0.12-0.03,0.17-0.07
		c0.01-0.01,0.02-0.02,0.03-0.04c0.09-0.17,0.15-0.34,0.07-0.54c-0.03-0.08-0.06-0.17-0.03-0.27c0.03-0.09,0.02-0.19,0.03-0.28
		c0.01-0.06,0.03-0.12,0.09-0.15c0.04-0.03,0.07-0.06,0.1-0.09c0.03-0.03,0.02-0.06,0-0.08c-0.01-0.01-0.02-0.02-0.04-0.02
		c-0.12-0.03-0.22,0.01-0.3,0.09c-0.28,0.25-0.63,0.41-0.94,0.61c-0.13,0.09-0.3-0.01-0.32-0.16c-0.03-0.2,0.02-0.4,0.04-0.6
		c0-0.04,0.03-0.09,0.06-0.12c0.05-0.06,0.11-0.11,0.17-0.16c0.08-0.06,0.11-0.15,0.11-0.25c0-0.09,0-0.19,0-0.28
		c0-0.31-0.01-0.62,0.07-0.93c0.03-0.12,0.04-0.25,0.05-0.37c0.01-0.1,0.02-0.21-0.06-0.3c-0.02,0-0.04,0-0.05,0.01
		c-0.23,0.23-0.46,0.47-0.68,0.71c-0.07,0.07-0.13,0.13-0.23,0.14c-0.05,0.01-0.09,0.02-0.13,0.04c-0.29,0.09-0.33,0.08-0.52-0.15
		c-0.02-0.03-0.03-0.05-0.05-0.08c-0.04-0.05-0.12-0.06-0.17-0.02c-0.05,0.04-0.1,0.08-0.14,0.12c-0.13,0.19-0.31,0.26-0.52,0.25
		c-0.09,0-0.19,0-0.28,0.02c-0.04,0.01-0.08,0.04-0.11,0.07c-0.12,0.12-0.17,0.26-0.17,0.43c0,0.02,0.04,0.06,0.06,0.06
		c0.09-0.01,0.18-0.06,0.27-0.06c0.25-0.01,0.49-0.06,0.72-0.16c0.14-0.06,0.3-0.07,0.46-0.04c0.1,0.02,0.2,0.14,0.19,0.24
		c-0.01,0.11-0.02,0.22-0.05,0.33c-0.03,0.12-0.09,0.24-0.1,0.36c-0.01,0.12,0.03,0.25,0.04,0.37c0.01,0.05,0,0.09,0,0.14
		c0,0.03-0.02,0.06-0.04,0.09c-0.11,0.11-0.22,0.22-0.33,0.33c-0.06,0.06-0.21,0.03-0.25-0.04c-0.09-0.2-0.18-0.4-0.16-0.63
		c0.01-0.11,0-0.22,0-0.33c0-0.02-0.04-0.06-0.06-0.06c-0.23,0.01-0.47,0.02-0.7,0.03c-0.06,0-0.12,0.06-0.14,0.11
		c-0.03,0.14-0.06,0.28-0.1,0.41c-0.05,0.16-0.21,0.23-0.28,0.37c-0.04,0.07-0.1,0.11-0.16,0.16c-0.06,0.05-0.05,0.24,0.01,0.3
		c0.01,0.01,0.02,0.03,0.04,0.03c0.15,0,0.31,0.01,0.47,0.01c0.05,0,0.11-0.07,0.13-0.12c0.02-0.08,0.02-0.16,0.05-0.23
		c0.01-0.04,0.06-0.08,0.1-0.09c0.08-0.02,0.16-0.02,0.23-0.02c0.06,0,0.12,0.02,0.16,0.08c0.03,0.05,0.06,0.11,0.09,0.16
		c0.03,0.08,0.09,0.13,0.18,0.13c0.05,0,0.1,0,0.14,0.02c0.06,0.02,0.11,0.05,0.17,0.08c0.02,0.01,0.04,0.05,0.04,0.07
		c0,0.03-0.03,0.06-0.05,0.07c-0.26,0.1-0.51,0.24-0.8,0.25c-0.03,0-0.06,0.02-0.08,0.04c-0.01,0.01-0.01,0.02-0.02,0.04
		c-0.02,0.04,0,0.06,0.04,0.07c0.16,0.05,0.31,0,0.47,0c0.17,0,0.31,0.05,0.45,0.12c0.06,0.03,0.08,0.2,0.03,0.26
		c-0.07,0.07-0.15,0.13-0.25,0.12c-0.22-0.02-0.44-0.01-0.66,0.02c-0.02,0-0.05,0.03-0.06,0.06c-0.02,0.03,0,0.11,0.03,0.13
		c0.02,0.02,0.06,0.04,0.08,0.04c0.08,0,0.15-0.02,0.23-0.03c0.19-0.02,0.37,0.01,0.54,0.1c0.04,0.03,0.06,0.13,0.02,0.17
		c-0.02,0.02-0.04,0.05-0.07,0.06c-0.07,0.04-0.13,0.08-0.21,0.11c-0.13,0.04-0.15,0.14-0.15,0.25c0.19,0.06,0.39,0.11,0.58,0.17
		c0.1,0.03,0.18,0.04,0.27,0c0.08-0.04,0.17-0.08,0.25-0.12c0.11-0.05,0.21-0.06,0.32-0.01c0.15,0.07,0.29,0.09,0.46,0.08
		c0.18-0.02,0.37,0.01,0.55-0.07c0.04-0.02,0.09-0.02,0.14-0.01c0.22,0.02,0.43-0.06,0.65-0.1c0.05-0.01,0.12-0.08,0.12-0.13
		C517.29,371.51,517.33,371.26,517.27,371.01z M512.63,364.38c0-0.01,0-0.01,0-0.02c0.14,0,0.28,0,0.42,0
		c0.03,0,0.06-0.03,0.07-0.05c0.06-0.13,0.1-0.27,0.05-0.41c-0.05-0.12-0.18-0.11-0.28-0.14c-0.12-0.04-0.25-0.03-0.37-0.01
		c-0.12,0.02-0.25,0.04-0.37,0.07c-0.18,0.06-0.37,0.08-0.55,0.08c-0.04,0-0.09,0.01-0.14,0.01c-0.05,0-0.11,0.07-0.12,0.13
		c0,0.06,0,0.13,0,0.19c0,0.05,0.04,0.1,0.08,0.09c0.23-0.08,0.46-0.02,0.7,0C512.3,364.34,512.46,364.36,512.63,364.38z
		 M512.54,373.36c0,0.12,0.05,0.22,0.1,0.31c0.01,0.02,0.05,0.06,0.07,0.05c0.14,0,0.28,0.05,0.42,0c0.07-0.03,0.15-0.05,0.23-0.03
		c0.23,0.04,0.46-0.02,0.7-0.02c0.07,0,0.11-0.04,0.14-0.1c0.02-0.04,0.03-0.08,0.06-0.13c-0.04-0.03-0.07-0.06-0.11-0.09
		c-0.01-0.01-0.03-0.01-0.04-0.01c-0.12-0.03-0.24-0.06-0.37-0.08c-0.08-0.01-0.16-0.04-0.23-0.02c-0.27,0.08-0.56,0.06-0.84,0.09
		C512.62,373.33,512.58,373.35,512.54,373.36z M511.36,365.33c0.01,0.28,0.03,0.3,0.31,0.27c0.23-0.02,0.47,0,0.69-0.08
		c0.07-0.03,0.15-0.02,0.23-0.02c0.06,0,0.12-0.01,0.19-0.02c0.09-0.01,0.15-0.09,0.17-0.2c0.01-0.06-0.04-0.13-0.1-0.13
		c-0.19-0.01-0.37-0.01-0.56-0.01c-0.19-0.01-0.38-0.01-0.55,0.07c-0.09,0.04-0.18,0.02-0.27-0.01c-0.06-0.02-0.11,0.03-0.1,0.1
		C511.36,365.3,511.36,365.32,511.36,365.33z M512.12,365.97c0,0,0,0.01,0,0.01c-0.22,0.01-0.44,0.01-0.65,0.02
		c-0.02,0-0.06,0.04-0.06,0.06c-0.01,0.08-0.01,0.16-0.01,0.23c0,0.02,0.04,0.06,0.07,0.06c0.09,0.01,0.18,0.01,0.28,0.01
		c0.27,0,0.53-0.01,0.8-0.01c0.06,0,0.12-0.03,0.14-0.1c0.03-0.07,0.06-0.14,0.09-0.21c0.01-0.03-0.01-0.07-0.05-0.07
		C512.52,365.96,512.32,365.97,512.12,365.97z M510.15,371.6C510.15,371.6,510.15,371.6,510.15,371.6c0.01,0.09,0.01,0.19,0.01,0.28
		c0,0.03,0.05,0.1,0.08,0.1c0.12,0,0.25,0,0.37-0.01c0.03,0,0.06-0.03,0.07-0.05c0.05-0.2,0.04-0.4-0.04-0.59
		c-0.02-0.05-0.06-0.07-0.1-0.08c-0.08-0.01-0.15-0.01-0.23-0.01c-0.08,0-0.15,0.07-0.15,0.14
		C510.14,371.44,510.15,371.52,510.15,371.6z M510.19,370.67c0.11,0.05,0.24,0.12,0.35,0.04c0.14-0.1,0.07-0.25,0.06-0.39
		c0-0.03-0.03-0.06-0.06-0.07c-0.1-0.04-0.21-0.04-0.32-0.02c-0.03,0.01-0.06,0.04-0.06,0.07
		C510.15,370.42,510.14,370.55,510.19,370.67z M513.48,371.83c-0.03-0.02-0.05-0.04-0.08-0.04c-0.17,0-0.33,0-0.5-0.06
		c-0.08-0.03-0.18,0-0.27,0c-0.08,0.01-0.12,0.11-0.07,0.18c0.03,0.06,0.09,0.09,0.15,0.08c0.24-0.06,0.49-0.07,0.73-0.09
		c0.01,0,0.03-0.02,0.04-0.03C513.48,371.85,513.48,371.84,513.48,371.83z"/>
	<path class="st2" d="M509.17,368.79c-0.04-0.06-0.07-0.11-0.1-0.16c-0.03-0.04-0.01-0.1,0.03-0.12c0.11-0.06,0.21-0.13,0.31-0.21
		c0.06-0.04,0.14-0.06,0.21-0.09c0.06-0.02,0.12-0.02,0.18,0.02c0.05,0.03,0.11,0.06,0.17,0.05c0.28-0.05,0.56-0.05,0.84-0.06
		c0.14,0,0.21-0.12,0.18-0.26c-0.01-0.03-0.03-0.06-0.06-0.07c-0.12-0.03-0.24-0.05-0.38-0.08c-0.07,0.02-0.17,0.03-0.25,0.06
		c-0.12,0.05-0.24,0.06-0.37,0.06c-0.21-0.01-0.4,0.02-0.58,0.14c-0.08,0.06-0.17,0.03-0.27,0c-0.16-0.05-0.23-0.18-0.25-0.31
		c-0.02-0.25-0.08-0.49-0.02-0.74c0.07-0.27,0.08-0.55,0.1-0.83c0.02-0.18,0.02-0.37,0.07-0.55c0.03-0.1,0.03-0.22,0.03-0.33
		c0-0.11,0.03-0.22,0.07-0.32c0.01-0.04,0.04-0.1,0.07-0.11c0.15-0.06,0.23-0.21,0.36-0.3c0.02-0.02,0.05-0.04,0.07-0.06
		c0.08-0.07,0.25,0,0.26,0.1c0.01,0.09,0.02,0.19,0.01,0.28c-0.02,0.17-0.05,0.34-0.1,0.51c-0.1,0.32-0.12,0.64-0.17,0.97
		c-0.04,0.23-0.03,0.47,0,0.7c0.01,0.06,0.06,0.12,0.12,0.12c0.44,0.03,0.88,0.02,1.31-0.01c0.15-0.01,0.3-0.07,0.45-0.09
		c0.18-0.02,0.39,0.01,0.53,0.11c0.05,0.04,0.1,0.08,0.14,0.12c0.06,0.05,0.08,0.17,0.03,0.21c-0.16,0.12-0.13,0.31-0.22,0.46
		c-0.09,0.15-0.11,0.32-0.11,0.5c0,0.16-0.03,0.31-0.13,0.44c-0.04,0.05-0.05,0.11-0.06,0.17c0,0.12-0.07,0.21-0.16,0.27
		c-0.12,0.08-0.24,0.15-0.36,0.23c-0.03,0.02-0.06,0.03-0.08,0.04c-0.1,0.04-0.2-0.01-0.21-0.11c-0.01-0.11-0.02-0.22-0.03-0.33
		c0-0.05-0.01-0.09-0.02-0.14c-0.01-0.06-0.06-0.12-0.12-0.12c-0.09-0.01-0.19-0.02-0.28-0.02c-0.13,0-0.25,0.04-0.33,0.14
		c-0.14,0.17-0.35,0.26-0.49,0.43c-0.06,0.07-0.15,0.1-0.23,0.15c-0.08,0.04-0.15,0.03-0.22-0.03c-0.05-0.04-0.07-0.09-0.06-0.16
		C509.09,369.21,509.13,369,509.17,368.79z"/>
</g>
</svg>
